<?xml version="1.0" encoding="UTF-8"?>
<svg width="897px" height="117px" viewBox="0 0 897 117" version="1.1" xmlns="http://www.w3.org/2000/svg" xmlns:xlink="http://www.w3.org/1999/xlink">
    <!-- Generator: Sketch 59.1 (86144) - https://sketch.com -->
    <title>Group 2</title>
    <desc>Created with Sketch.</desc>
    <g id="Page-1" stroke="none" stroke-width="1" fill="none" fill-rule="evenodd">
        <g id="waves(2)" transform="translate(-519.000000, -307.000000)" stroke="#FFFFFF">
            <g id="Group-2" transform="translate(519.000000, 308.000000)">
                <polyline id="Path" points="0 9.8 3 9.5 6 9.2 9 8.9 12 8.8 15 8.6 18 8.6 21 8.5 27 8.5 30 8.4 33 8.4 36 8.3 39 8.3 42 8.1 45 7.9 48 7.8 51 7.6 54 7.3 57 7 60 6.7 63 6.3 66 5.9 69 5.4 72 5 75 4.5 78 4 81 3.5 84 3 87 2.5 90 2 93 1.5 96 1.1 99 0.7 102 0.4 105 0.2 108 -2.84217094e-14 114 -2.84217094e-14 117 0.2 120 0.4 123 0.8 126 1.4 129 2 132 2.8 135 3.8 138 4.8 141 5.9 144 7.2 147 8.6 150 10 153 11.5 156 13.1 159 14.6 162 16.3 165 17.9 168 19.4 171 21 174 22.5 177 23.9 180 25.2 183 26.5 186 27.6 189 28.6 192 29.6 195 30.3 198 30.9 201 31.4 204 31.8 207 32 213 32 216 31.8 219 31.5 222 31.1 225 30.6 228 30 231 29.3 234 28.5 237 27.7 240 26.8 243 25.9 246 24.9 249 24 252 23.1 255 22.1 258 21.3 261 20.4 264 19.6 267 18.8 270 18.1 273 17.5 276 16.9 279 16.4 282 16 285 15.6 288 15.4 291 15.2 300 15.2 303 15.3 306 15.5 309 15.8 312 16.1 315 16.5 318 16.9 321 17.3 324 17.8 327 18.3 330 18.8 333 19.2 336 19.7 339 20.2 342 20.7 345 21.2 348 21.6 351 22 354 22.4 357 22.7 360 22.9 363 23.1 375 23.1 378 22.8 381 22.5 384 22.2 387 21.7 390 21.2 393 20.7 396 20.1 399 19.5 402 18.9 405 18.2 408 17.5 411 16.9 414 16.2 417 15.6 420 15.1 423 14.5 426 14.1 429 13.7 432 13.4 435 13.1 438 13 444 13 447 13.2 450 13.4 453 13.8 456 14.2 459 14.8 462 15.5 465 16.2 468 17.2 471 18.1 474 19.1 477 20.3 480 21.6 483 22.9 486 24.3 489 25.8 492 27.4 495 29.1 498 30.8 501 32.5 504 34.4 507 36.2 510 38.2 513 40.1 516 42.1 519 44 522 45.9 525 47.8 528 49.6 531 51.4 534 53.2 537 54.9 540 56.5 543 58 546 59.4 549 60.6 552 61.8 555 62.8 558 63.6 561 64.2 564 64.7 567 64.9 573 64.9 576 64.4 579 63.8 582 62.9 585 61.9 588 60.5 591 59 594 57.3 597 55.3 600 53.3 603 51 606 48.7 609 46.2 612 43.6 615 40.9 618 38.2 621 35.4 624 32.7 627 29.9 630 27.2 633 24.6 636 22.1 639 19.7 642 17.4 645 15.2 648 13.2 651 11.5 654 9.9 657 8.5 660 7.3 663 6.3 666 5.7 669 5.2 672 4.9 678 4.9 681 5.4 684 5.9 687 6.7 690 7.7 693 8.7 696 9.9 699 11.3 702 12.8 705 14.5 708 16.2 711 18.1 714 20 717 22 720 24 723 26.2 726 28.4 729 30.5 732 32.7 735 34.9 738 37.1 741 39.3 744 41.3 747 43.4 750 45.4 753 47.3 756 49.1 759 50.8 762 52.4 765 53.9 768 55.3 771 56.5 774 57.5 777 58.5 780 59.2 783 59.8 786 60.2 789 60.4 795 60.4 798 60 801 59.5 804 58.9 807 58 810 57 813 56 816 54.7 819 53.3 822 51.7 825 50.1 828 48.4 831 46.6 834 44.7 837 42.8 840 40.8 843 38.9 846 36.9 849 34.9 852 33.1 855 31.1 858 29.3 861 27.5 864 25.8 867 24.2 870 22.6 873 21.2 876 19.8 879 18.6 882 17.4 885 16.4 888 15.4 891 14.6 894 13.8 897 13.1"></polyline>
                <polyline id="Path" points="0 28.1 9 28.1 12 28.3 15 28.5 18 28.7 21 29 24 29.3 27 29.6 30 29.8 33 30.1 36 30.3 39 30.5 42 30.7 45 30.8 48 30.8 51 30.9 54 30.9 57 30.8 60 30.6 63 30.4 66 30.1 69 29.8 72 29.4 75 29 78 28.6 81 28.1 84 27.6 87 27.1 90 26.6 93 26.1 96 25.7 99 25.2 102 24.9 105 24.5 108 24.3 111 24.1 117 24.1 120 24.2 123 24.5 126 24.9 129 25.4 132 26.1 135 26.9 138 27.8 141 28.8 144 29.8 147 31.1 150 32.4 153 33.7 156 35.1 159 36.4 162 37.8 165 39.2 168 40.5 171 41.8 174 43 177 44.1 180 45.1 183 46.1 186 46.9 189 47.6 192 48.1 195 48.5 198 48.8 201 49 204 49 207 48.9 210 48.7 213 48.3 216 47.9 219 47.3 222 46.7 225 46 228 45.2 231 44.4 234 43.5 237 42.6 240 41.6 243 40.8 246 39.8 249 38.9 252 38.1 255 37.2 258 36.5 261 35.8 264 35.1 267 34.6 270 34.1 273 33.7 276 33.4 279 33.2 288 33.2 291 33.4 294 33.7 297 34.1 300 34.6 303 35.2 306 35.8 309 36.5 312 37.2 315 38 318 38.9 321 39.7 324 40.7 327 41.5 330 42.5 333 43.4 336 44.3 339 45.1 342 46.1 345 46.8 348 47.6 351 48.3 354 49 357 49.6 360 50 363 50.4 366 50.7 369 50.9 375 50.9 378 50.7 381 50.4 384 50.1 387 49.6 390 49 393 48.4 396 47.6 399 46.9 402 46 405 45.1 408 44.2 411 43.3 414 42.4 417 41.5 420 40.7 423 39.8 426 39.1 429 38.4 432 37.7 435 37.2 438 36.8 441 36.4 444 36.2 447 36.1 450 36.1 453 36.2 456 36.5 459 36.9 462 37.4 465 38 468 38.8 471 39.7 474 40.7 477 41.8 480 43.1 483 44.4 486 45.9 489 47.5 492 49.1 495 50.9 498 52.7 501 54.7 504 56.7 507 58.7 510 60.7 513 62.8 516 64.9 519 67 522 69 525 71.1 528 73.1 531 75.1 534 77.1 537 78.8 540 80.6 543 82.2 546 83.7 549 85.1 552 86.4 555 87.5 558 88.5 561 89.2 564 89.8 567 90.1 570 90.2 573 90.2 576 89.8 579 89.2 582 88.4 585 87.4 588 86.1 591 84.6 594 82.9 597 80.9 600 78.8 603 76.5 606 74.1 609 71.5 612 68.8 615 66 618 63 621 60.2 624 57.2 627 54.3 630 51.4 633 48.6 636 45.8 639 43.1 642 40.6 645 38.2 648 35.9 651 33.9 654 31.9 657 30.3 660 28.8 663 27.6 666 26.6 669 25.7 672 25.2 675 24.8 678 24.7 681 24.7 684 25.1 687 25.6 690 26.2 693 27.1 696 28.1 699 29.2 702 30.5 705 31.9 708 33.5 711 35.1 714 36.9 717 38.7 720 40.6 723 42.6 726 44.6 729 46.6 732 48.7 735 50.8 738 52.9 741 55 744 57 747 59.1 750 61.1 753 63 756 64.8 759 66.5 762 68.1 765 69.7 768 71 771 72.3 774 73.4 777 74.4 780 75.2 783 75.8 786 76.3 789 76.7 792 76.8 795 76.8 798 76.6 801 76.3 804 75.8 807 75.1 810 74.3 813 73.3 816 72.2 819 71 822 69.6 825 68.2 828 66.6 831 65 834 63.3 837 61.6 840 59.8 843 58 846 56.2 849 54.5 852 52.7 855 51 858 49.3 861 47.7 864 46.1 867 44.6 870 43.2 873 41.9 876 40.7 879 39.6 882 38.6 885 37.6 888 36.8 891 36.1 894 35.5 897 34.9"></polyline>
                <polyline id="Path" points="0 47.6 3 47.7 6 47.9 9 48.3 12 48.7 15 49.1 18 49.6 21 50.1 24 50.7 27 51.2 30 51.7 33 52.3 36 52.7 39 53.2 42 53.6 45 53.9 48 54.2 51 54.4 54 54.5 57 54.6 63 54.6 66 54.4 69 54.2 72 53.9 75 53.6 78 53.2 81 52.8 84 52.3 87 51.9 90 51.4 93 50.9 96 50.4 99 49.9 102 49.5 105 49.1 108 48.8 111 48.6 114 48.5 120 48.5 123 48.7 126 49 129 49.5 132 50.1 135 50.7 138 51.5 141 52.5 144 53.5 147 54.5 150 55.6 153 56.8 156 58 159 59.2 162 60.3 165 61.4 168 62.5 171 63.5 174 64.5 177 65.3 180 66 183 66.6 186 67.1 189 67.5 192 67.7 201 67.7 204 67.3 207 66.9 210 66.4 213 65.8 216 65.1 219 64.4 222 63.5 225 62.6 228 61.7 231 60.7 234 59.7 237 58.8 240 57.8 243 56.9 246 56 249 55.2 252 54.4 255 53.7 258 53 261 52.5 264 52 267 51.7 270 51.5 273 51.3 276 51.3 279 51.4 282 51.7 285 52 288 52.5 291 53.1 294 53.7 297 54.5 300 55.4 303 56.4 306 57.4 309 58.4 312 59.6 315 60.8 318 62 321 63.3 324 64.5 327 65.8 330 67.1 333 68.4 336 69.7 339 70.9 342 72.1 345 73.2 348 74.2 351 75.2 354 76.2 357 76.9 360 77.6 363 78.1 366 78.5 369 78.8 375 78.8 378 78.7 381 78.4 384 77.9 387 77.4 390 76.7 393 75.9 396 74.9 399 74 402 73 405 71.8 408 70.7 411 69.5 414 68.3 417 67.1 420 66 423 64.9 426 63.8 429 62.8 432 61.8 435 61 438 60.3 441 59.7 444 59.2 447 58.9 450 58.7 456 58.7 459 58.9 462 59.3 465 59.9 468 60.6 471 61.4 474 62.4 477 63.6 480 64.8 483 66.2 486 67.8 489 69.4 492 71.2 495 73 498 75 501 77 504 79 507 81.2 510 83.4 513 85.6 516 87.8 519 90 522 92.2 525 94.3 528 96.5 531 98.5 534 100.5 537 102.5 540 104.3 543 106 546 107.6 549 109.1 552 110.4 555 111.6 558 112.6 561 113.6 564 114.2 567 114.6 570 114.8 573 114.8 576 114.6 579 114.1 582 113.4 585 112.4 588 111.2 591 109.8 594 108.1 597 106.2 600 104.2 603 101.9 606 99.4 609 96.8 612 94.1 615 91.3 618 88.3 621 85.3 624 82.3 627 79.3 630 76.3 633 73.3 636 70.3 639 67.5 642 64.8 645 62.2 648 59.8 651 57.5 654 55.4 657 53.4 660 51.7 663 50.3 666 49 669 48 672 47.1 675 46.5 678 46.1 681 46 684 46 687 46.3 690 46.7 693 47.3 696 48.1 699 49 702 50 705 51.2 708 52.5 711 54 714 55.5 717 57.1 720 58.8 723 60.6 726 62.5 729 64.4 732 66.3 735 68.3 738 70.3 741 72.2 744 74.2 747 76 750 77.9 753 79.7 756 81.4 759 83.1 762 84.6 765 86.1 768 87.4 771 88.6 774 89.6 777 90.6 780 91.4 783 92.1 786 92.5 789 92.9 792 93.1 795 93.1 798 93 801 92.7 804 92.3 807 91.7 810 91 813 90.1 816 89.1 819 88.1 822 86.9 825 85.6 828 84.3 831 82.8 834 81.3 837 79.8 840 78.3 843 76.7 846 75.1 849 73.5 852 72 855 70.5 858 69 861 67.6 864 66.2 867 64.9 870 63.7 873 62.7 876 61.6 879 60.6 882 59.8 885 59.1 888 58.4 891 57.9 894 57.4 897 57"></polyline>
            </g>
        </g>
    </g>
</svg>