<svg viewBox="50 50 890 890" xmlns="http://www.w3.org/2000/svg">
  <g fill="none" stroke="#2b2c35">
    <path d="M50 100l3 1.8 3 1.7 3 1.6 3 1.7 3 1.6 3 1.5 3 1.5 3 1.4 3 1.3 3 1.2 3 1.2 3 1 3 1 3 .7 3 .8 3 .6 3 .5 3 .4 3 .3 3 .1 3 .1h6l3-.2 3-.2 3-.3 3-.4 3-.4 3-.5 3-.6 3-.5 3-.6 3-.6 3-.6 3-.7 3-.6 3-.5 3-.6 3-.5 3-.4 3-.5 3-.3 3-.3 3-.2 3-.2h12l3 .2 3 .2 3 .3 3 .3 3 .3 3 .3 3 .3 3 .3 3 .3 3 .3 3 .2 3 .2 3 .2 3 .1 3 .1 3 .1h3l3 .1h3l3 .1 3 .1 3 .1 3 .2 3 .2 3 .3 3 .3 3 .5 3 .4 3 .6 3 .6 3 .8 3 .7 3 1 3 .8 3 1 3 1.1 3 1.1 3 1.2 3 1.2 3 1.2 3 1.2 3 1.3 3 1.2 3 1.2 3 1.1 3 1.2 3 1 3 1 3 .9 3 .8 3 .7 3 .6 3 .4 3 .4 3 .1 3 .1h3l3-.3 3-.3 3-.5 3-.5 3-.8 3-.8 3-1 3-1 3-1.2 3-1.2 3-1.4 3-1.4 3-1.6 3-1.6 3-1.7 3-1.7 3-1.8 3-1.8 3-1.8 3-1.8 3-1.9 3-1.8 3-1.8 3-1.7 3-1.8 3-1.7 3-1.6 3-1.6 3-1.6 3-1.5 3-1.5 3-1.5 3-1.4 3-1.5 3-1.4 3-1.3 3-1.4 3-1.3 3-1.4 3-1.3 3-1.2 3-1.3 3-1.3 3-1.2 3-1.2 3-1.1 3-1.1 3-1.1 3-1 3-1 3-1 3-.9 3-.8 3-.7 3-.7 3-.6 3-.5 3-.4 3-.3 3-.3 3-.1h6l3 .2 3 .4 3 .4 3 .5 3 .7 3 .8 3 1 3 1 3 1.3 3 1.3 3 1.5 3 1.6 3 1.7 3 1.8 3 2 3 2 3 2 3 2.1 3 2.2 3 2.2 3 2.3 3 2.2 3 2.3 3 2.2 3 2.2 3 2.1 3 2 3 2.1 3 2 3 1.8 3 1.7 3 1.6 3 1.5 3 1.3 3 1.2 3 1 3 1 3 .7 3 .6 3 .4 3 .3h6l3-.4 3-.4 3-.6 3-.8 3-1 3-1 3-1.2 3-1.4 3-1.4 3-1.6 3-1.6 3-1.8 3-1.8 3-1.8 3-2 3-1.9 3-2 3-1.9 3-2 3-1.9 3-1.8 3-1.9 3-1.8 3-1.7 3-1.7 3-1.6 3-1.6 3-1.4 3-1.4 3-1.3 3-1.2 3-1.1 3-1 3-1 3-1 3-.8 3-.8 3-.8 3-.7 3-.6 3-.6 3-.6 3-.5 3-.5 3-.4 3-.3 3-.3 3-.1 3-.2h6l3 .1 3 .3 3 .3 3 .4 3 .5 3 .6 3 .7 3 .8 3 1 3 .9 3 1 3 1.3 3 1.2 3 1.4 3 1.4 3 1.4 3 1.5 3 1.6 3 1.6 3 1.7 3 1.6 3 1.7 3 1.7 3 1.7 3 1.7 3 1.7 3 1.6 3 1.6 3 1.6 3 1.5 3 1.4 3 1.4 3 1.2 3 1.3 3 1 3 1.1"/>
    <path d="M50 123.2l3 1.5 3 1.4 3 1.4 3 1.3 3 1.3 3 1.3 3 1.2 3 1.2 3 1 3 1 3 1 3 .8 3 .8 3 .7 3 .5 3 .5 3 .4 3 .3 3 .2 3 .2 3 .1h9l3-.2 3-.1 3-.2 3-.2 3-.3 3-.2 3-.2 3-.3 3-.2 3-.2 3-.2 3-.1 3-.2h12l3 .2 3 .1 3 .3 3 .3 3 .3 3 .4 3 .4 3 .5 3 .5 3 .5 3 .5 3 .5 3 .5 3 .4 3 .5 3 .4 3 .3 3 .3 3 .2 3 .2h15l3-.2 3-.1 3-.2h3l3-.2h12l3 .2 3 .2 3 .3 3 .3 3 .5 3 .5 3 .6 3 .6 3 .8 3 .8 3 .8 3 1 3 .9 3 1 3 1 3 1 3 1 3 1 3 1 3 1 3 1 3 .8 3 .8 3 .7 3 .6 3 .5 3 .3 3 .3 3 .1h3l3-.2 3-.3 3-.5 3-.6 3-.8 3-.8 3-1 3-1.2 3-1.2 3-1.4 3-1.5 3-1.6 3-1.7 3-1.7 3-1.9 3-1.9 3-2 3-2 3-2 3-2 3-2 3-2 3-2 3-1.9 3-1.9 3-1.8 3-1.8 3-1.7 3-1.7 3-1.5 3-1.6 3-1.5 3-1.4 3-1.4 3-1.3 3-1.3 3-1.2 3-1.2 3-1.2 3-1.2 3-1 3-1.1 3-1 3-1 3-1 3-1 3-.8 3-.9 3-.8 3-.8 3-.7 3-.6 3-.7 3-.5 3-.5 3-.5 3-.3 3-.3 3-.3 3-.1 3-.1h6l3 .3 3 .3 3 .3 3 .5 3 .6 3 .7 3 .8 3 1 3 1 3 1.2 3 1.3 3 1.4 3 1.6 3 1.6 3 1.8 3 1.8 3 2 3 2 3 2 3 2.2 3 2.1 3 2.2 3 2.2 3 2.1 3 2.2 3 2 3 2.2 3 2 3 2 3 1.8 3 1.7 3 1.7 3 1.6 3 1.4 3 1.3 3 1.2 3 1 3 .9 3 .7 3 .6 3 .4 3 .2 3 .1h3l3-.2 3-.4 3-.5 3-.7 3-.8 3-1 3-1 3-1.2 3-1.3 3-1.4 3-1.5 3-1.6 3-1.6 3-1.6 3-1.7 3-1.8 3-1.7 3-1.8 3-1.7 3-1.7 3-1.7 3-1.7 3-1.6 3-1.6 3-1.5 3-1.4 3-1.4 3-1.3 3-1.3 3-1.2 3-1 3-1.1 3-1 3-1 3-.9 3-.8 3-.8 3-.8 3-.8 3-.7 3-.6 3-.7 3-.6 3-.5 3-.5 3-.5 3-.3 3-.4 3-.2 3-.2h6l3 .1 3 .2 3 .3 3 .5 3 .5 3 .7 3 .7 3 1 3 .9 3 1 3 1.3 3 1.3 3 1.3 3 1.5 3 1.5 3 1.6 3 1.7 3 1.7 3 1.7 3 1.8 3 1.7 3 1.8 3 1.8 3 1.8 3 1.7 3 1.8 3 1.7 3 1.6 3 1.6 3 1.5 3 1.5 3 1.4 3 1.3 3 1.2 3 1.1"/>
    <path d="M50 146.8l3 1 3 1.1 3 1 3 1 3 1 3 1 3 1 3 .8 3 .8 3 .7 3 .6 3 .6 3 .6 3 .4 3 .4 3 .3 3 .3 3 .2 3 .1 3 .1h21l3-.1h9l3 .1 3 .1 3 .2 3 .2 3 .3 3 .3 3 .4 3 .4 3 .5 3 .5 3 .6 3 .6 3 .7 3 .8 3 .7 3 .8 3 .9 3 .8 3 .8 3 .9 3 .8 3 .7 3 .8 3 .6 3 .6 3 .6 3 .4 3 .4 3 .3 3 .1 3 .1h6l3-.1 3-.2 3-.2 3-.2 3-.3 3-.2 3-.3 3-.2 3-.2 3-.2 3-.2h12l3 .2 3 .2 3 .3 3 .4 3 .4 3 .5 3 .5 3 .6 3 .7 3 .6 3 .7 3 .8 3 .7 3 .7 3 .8 3 .7 3 .7 3 .6 3 .5 3 .5 3 .4 3 .3 3 .2 3 .1h3l3-.2 3-.4 3-.5 3-.6 3-.8 3-1 3-1 3-1.3 3-1.3 3-1.5 3-1.6 3-1.7 3-1.8 3-1.9 3-2 3-2 3-2 3-2.1 3-2.2 3-2.1 3-2.1 3-2.2 3-2 3-2.1 3-2 3-2 3-1.8 3-1.8 3-1.7 3-1.6 3-1.5 3-1.5 3-1.3 3-1.3 3-1.3 3-1.1 3-1.1 3-1 3-1 3-1 3-.8 3-.9 3-.7 3-.8 3-.7 3-.6 3-.7 3-.5 3-.6 3-.5 3-.4 3-.4 3-.4 3-.3 3-.3 3-.3 3-.2 3-.1 3-.1h9l3 .2 3 .2 3 .3 3 .4 3 .4 3 .5 3 .6 3 .7 3 .8 3 1 3 1 3 1 3 1.3 3 1.3 3 1.5 3 1.5 3 1.7 3 1.7 3 1.8 3 2 3 1.9 3 2 3 2 3 2 3 2 3 2.1 3 2 3 2 3 2 3 1.9 3 1.8 3 1.7 3 1.7 3 1.5 3 1.5 3 1.3 3 1.2 3 1.1 3 1 3 .8 3 .7 3 .6 3 .4 3 .2 3 .2h3l3-.2 3-.3 3-.4 3-.5 3-.6 3-.8 3-.9 3-1 3-1 3-1.1 3-1.2 3-1.3 3-1.3 3-1.4 3-1.4 3-1.4 3-1.4 3-1.4 3-1.4 3-1.4 3-1.4 3-1.3 3-1.3 3-1.3 3-1.2 3-1.1 3-1.1 3-1.1 3-1 3-1 3-1 3-.8 3-.8 3-.9 3-.7 3-.8 3-.8 3-.7 3-.7 3-.7 3-.7 3-.7 3-.7 3-.6 3-.6 3-.5 3-.5 3-.5 3-.4 3-.3 3-.2 3-.2h6l3 .2 3 .3 3 .3 3 .5 3 .6 3 .8 3 .8 3 1 3 1 3 1.2 3 1.2 3 1.4 3 1.4 3 1.5 3 1.6 3 1.6 3 1.7 3 1.7 3 1.8 3 1.7 3 1.8 3 1.7 3 1.7 3 1.7 3 1.6 3 1.6 3 1.6 3 1.5 3 1.4 3 1.4 3 1.2 3 1.2 3 1.1"/>
    <path d="M50 170.7l3 .6 3 .7 3 .6 3 .7 3 .6 3 .6 3 .5 3 .5 3 .4 3 .4 3 .4 3 .3 3 .2 3 .2 3 .2 3 .1h3l3 .1h27l3 .1 3 .2 3 .2 3 .2 3 .4 3 .4 3 .4 3 .6 3 .6 3 .7 3 .7 3 .9 3 .9 3 1 3 1 3 1 3 1.1 3 1.2 3 1.2 3 1.2 3 1.2 3 1.2 3 1.1 3 1.2 3 1.1 3 1 3 1 3 1 3 .8 3 .7 3 .6 3 .5 3 .4 3 .3 3 .2 3 .1h6l3-.2 3-.2 3-.3 3-.3 3-.3 3-.4 3-.3 3-.4 3-.3 3-.3 3-.3 3-.2 3-.2 3-.2h3l3-.1h6l3 .1 3 .2 3 .2 3 .2 3 .3 3 .3 3 .4 3 .4 3 .3 3 .4 3 .4 3 .4 3 .3 3 .3 3 .3 3 .2 3 .1h6l3-.2 3-.3 3-.4 3-.6 3-.7 3-.8 3-1 3-1.2 3-1.3 3-1.5 3-1.5 3-1.7 3-1.8 3-1.9 3-2 3-2 3-2.1 3-2.2 3-2.2 3-2.2 3-2.2 3-2.2 3-2.2 3-2.2 3-2 3-2.1 3-2 3-2 3-1.7 3-1.7 3-1.7 3-1.5 3-1.4 3-1.3 3-1.1 3-1.1 3-1 3-1 3-.8 3-.8 3-.6 3-.7 3-.5 3-.5 3-.5 3-.3 3-.4 3-.3 3-.2 3-.3 3-.2 3-.1 3-.1 3-.1h15l3 .1 3 .1 3 .2 3 .2 3 .2 3 .3 3 .4 3 .3 3 .5 3 .5 3 .5 3 .6 3 .7 3 .8 3 .8 3 1 3 1 3 1.1 3 1.2 3 1.3 3 1.4 3 1.5 3 1.6 3 1.7 3 1.7 3 1.8 3 1.8 3 1.8 3 1.9 3 1.8 3 2 3 1.8 3 1.8 3 1.7 3 1.8 3 1.6 3 1.6 3 1.5 3 1.4 3 1.3 3 1.2 3 1.1 3 1 3 .9 3 .7 3 .6 3 .5 3 .4 3 .3 3 .2h6l3-.3 3-.2 3-.4 3-.5 3-.5 3-.6 3-.7 3-.8 3-.8 3-.9 3-1 3-.9 3-1 3-.9 3-1 3-1 3-1 3-1 3-.9 3-1 3-.8 3-.9 3-.8 3-.8 3-.8 3-.7 3-.7 3-.7 3-.6 3-.7 3-.6 3-.6 3-.6 3-.6 3-.6 3-.6 3-.6 3-.7 3-.6 3-.7 3-.7 3-.7 3-.6 3-.7 3-.6 3-.6 3-.6 3-.5 3-.5 3-.4 3-.4 3-.2 3-.2h9l3 .3 3 .3 3 .5 3 .5 3 .7 3 .8 3 .8 3 1 3 1.1 3 1.2 3 1.3 3 1.3 3 1.4 3 1.5 3 1.5 3 1.5 3 1.6 3 1.6 3 1.5 3 1.6 3 1.5 3 1.5 3 1.4 3 1.4 3 1.4 3 1.3 3 1.2 3 1.1 3 1.1 3 1"/>
    <path d="M50 194.7l3 .2 3 .3 3 .2 3 .2 3 .2 3 .2 3 .1 3 .1 3 .1h15l3-.2 3-.1 3-.1 3-.2 3-.1 3-.2 3-.1 3-.1h3l3-.1h6l3 .1 3 .2 3 .2 3 .4 3 .4 3 .5 3 .6 3 .7 3 .8 3 .9 3 1 3 1 3 1.2 3 1.2 3 1.3 3 1.4 3 1.4 3 1.5 3 1.5 3 1.5 3 1.6 3 1.5 3 1.6 3 1.5 3 1.4 3 1.4 3 1.3 3 1.3 3 1.1 3 1 3 1 3 .9 3 .7 3 .6 3 .5 3 .3 3 .3h3l3 .1h3l3-.2 3-.2 3-.3 3-.3 3-.4 3-.4 3-.4 3-.4 3-.4 3-.4 3-.4 3-.4 3-.4 3-.3 3-.3 3-.3 3-.2 3-.2 3-.2 3-.1 3-.1h3l3-.1h21l3-.1 3-.1 3-.2 3-.2 3-.3 3-.4 3-.4 3-.6 3-.7 3-.8 3-1 3-1 3-1.3 3-1.4 3-1.5 3-1.6 3-1.7 3-1.9 3-2 3-2 3-2 3-2.2 3-2.2 3-2.3 3-2.2 3-2.3 3-2.2 3-2.2 3-2.2 3-2.2 3-2 3-2 3-2 3-1.8 3-1.7 3-1.6 3-1.4 3-1.4 3-1.2 3-1 3-1 3-1 3-.6 3-.7 3-.5 3-.4 3-.4 3-.3 3-.2h3l3-.2h6l3 .2h3l3 .2 3 .2 3 .2 3 .3 3 .2 3 .3 3 .3 3 .3 3 .3 3 .3 3 .4 3 .3 3 .4 3 .4 3 .4 3 .4 3 .4 3 .5 3 .5 3 .5 3 .6 3 .6 3 .6 3 .7 3 .8 3 .9 3 .9 3 1 3 1 3 1.2 3 1.2 3 1.3 3 1.4 3 1.5 3 1.5 3 1.6 3 1.6 3 1.6 3 1.6 3 1.7 3 1.6 3 1.6 3 1.6 3 1.6 3 1.5 3 1.4 3 1.4 3 1.3 3 1.2 3 1.2 3 1 3 1 3 .8 3 .7 3 .6 3 .6 3 .4 3 .3 3 .3 3 .1h9l3-.2 3-.2 3-.3 3-.3 3-.4 3-.4 3-.5 3-.5 3-.5 3-.5 3-.5 3-.5 3-.6 3-.5 3-.5 3-.5 3-.4 3-.5 3-.4 3-.4 3-.3 3-.4 3-.3 3-.3 3-.2 3-.3 3-.3 3-.2 3-.3 3-.2 3-.3 3-.3 3-.3 3-.4 3-.4 3-.5 3-.5 3-.6 3-.6 3-.6 3-.6 3-.7 3-.7 3-.7 3-.7 3-.7 3-.6 3-.6 3-.6 3-.6 3-.5 3-.4 3-.4 3-.3 3-.2 3-.1h6l3 .2 3 .3 3 .4 3 .5 3 .5 3 .7 3 .8 3 .9 3 .9 3 1 3 1.1 3 1.2 3 1.2 3 1.2 3 1.2 3 1.3 3 1.3 3 1.3 3 1.2 3 1.2 3 1.2 3 1.1 3 1 3 1 3 1 3 1 3 .8"/>
    <path d="M50 218.6l3-.2 3-.2 3-.2 3-.2 3-.2 3-.3 3-.2 3-.3 3-.3 3-.3 3-.4 3-.3 3-.4 3-.3 3-.4 3-.4 3-.3 3-.4 3-.3 3-.3 3-.3 3-.2 3-.1 3-.2h6l3 .2 3 .2 3 .3 3 .4 3 .5 3 .6 3 .7 3 .9 3 1 3 1 3 1.2 3 1.3 3 1.3 3 1.5 3 1.6 3 1.6 3 1.7 3 1.8 3 1.8 3 1.8 3 1.8 3 1.8 3 1.8 3 1.8 3 1.7 3 1.6 3 1.6 3 1.5 3 1.4 3 1.3 3 1.2 3 1.1 3 1 3 .8 3 .7 3 .5 3 .5 3 .3 3 .2h9l3-.2 3-.3 3-.3 3-.4 3-.4 3-.4 3-.5 3-.5 3-.5 3-.5 3-.5 3-.6 3-.5 3-.5 3-.4 3-.5 3-.5 3-.4 3-.4 3-.4 3-.4 3-.4 3-.4 3-.3 3-.4 3-.4 3-.4 3-.4 3-.4 3-.5 3-.5 3-.6 3-.6 3-.7 3-.8 3-1 3-.9 3-1 3-1.2 3-1.3 3-1.5 3-1.5 3-1.7 3-1.7 3-2 3-1.9 3-2 3-2.1 3-2.2 3-2.2 3-2.2 3-2.3 3-2.3 3-2.2 3-2.2 3-2.2 3-2.1 3-2 3-2 3-2 3-1.7 3-1.7 3-1.5 3-1.4 3-1.3 3-1.2 3-1 3-.8 3-.7 3-.6 3-.4 3-.4 3-.2h3l3-.1h3l3 .2 3 .3 3 .3 3 .3 3 .4 3 .5 3 .5 3 .5 3 .5 3 .6 3 .6 3 .6 3 .6 3 .6 3 .5 3 .6 3 .6 3 .6 3 .6 3 .5 3 .6 3 .5 3 .6 3 .5 3 .6 3 .5 3 .6 3 .5 3 .6 3 .7 3 .6 3 .7 3 .8 3 .8 3 .8 3 1 3 1 3 1 3 1.1 3 1.2 3 1.3 3 1.3 3 1.3 3 1.3 3 1.4 3 1.4 3 1.4 3 1.3 3 1.4 3 1.3 3 1.3 3 1.2 3 1.2 3 1.1 3 1 3 1 3 1 3 .8 3 .7 3 .6 3 .6 3 .5 3 .4 3 .3 3 .3 3 .1 3 .2h12l3-.2 3-.1 3-.2 3-.1 3-.2 3-.1 3-.2 3-.1 3-.2h3l3-.2h15l3 .1 3 .2 3 .1 3 .2 3 .2 3 .2 3 .3 3 .2 3 .2 3 .2 3 .2 3 .2 3 .1 3 .1h9l3-.2 3-.3 3-.3 3-.4 3-.4 3-.5 3-.6 3-.6 3-.7 3-.7 3-.7 3-.7 3-.8 3-.8 3-.8 3-.7 3-.7 3-.7 3-.7 3-.6 3-.6 3-.5 3-.4 3-.4 3-.2 3-.2 3-.1h6l3 .2 3 .3 3 .3 3 .5 3 .5 3 .6 3 .7 3 .7 3 .8 3 .8 3 .9 3 .9 3 .9 3 .9 3 .9 3 .9 3 .8 3 .8 3 .8 3 .7 3 .7 3 .6"/>
    <path d="M50 242l3-.6 3-.6 3-.6 3-.6 3-.6 3-.7 3-.6 3-.6 3-.7 3-.6 3-.7 3-.6 3-.7 3-.6 3-.7 3-.6 3-.6 3-.5 3-.5 3-.5 3-.4 3-.3 3-.3 3-.2 3-.1h6l3 .2 3 .3 3 .4 3 .6 3 .6 3 .8 3 1 3 1 3 1.2 3 1.2 3 1.5 3 1.5 3 1.6 3 1.7 3 1.8 3 1.9 3 1.9 3 2 3 2 3 2 3 2 3 2 3 2 3 1.8 3 2 3 1.7 3 1.8 3 1.6 3 1.6 3 1.4 3 1.4 3 1.2 3 1 3 1 3 .8 3 .6 3 .5 3 .4 3 .3 3 .2h6l3-.1 3-.3 3-.3 3-.3 3-.4 3-.5 3-.5 3-.6 3-.6 3-.6 3-.6 3-.7 3-.6 3-.7 3-.7 3-.7 3-.7 3-.7 3-.7 3-.7 3-.7 3-.7 3-.7 3-.8 3-.7 3-.7 3-.8 3-.8 3-.8 3-.9 3-.9 3-.9 3-1 3-1 3-1.2 3-1.2 3-1.3 3-1.4 3-1.4 3-1.6 3-1.7 3-1.8 3-1.8 3-2 3-2 3-2 3-2.2 3-2.2 3-2.2 3-2.2 3-2.2 3-2.2 3-2.1 3-2.2 3-2 3-2 3-2 3-1.8 3-1.7 3-1.6 3-1.5 3-1.3 3-1.2 3-1 3-1 3-.8 3-.6 3-.4 3-.4 3-.1h6l3 .2 3 .3 3 .4 3 .4 3 .6 3 .6 3 .7 3 .8 3 .7 3 .9 3 .8 3 .9 3 .9 3 .8 3 1 3 .8 3 .9 3 .8 3 .9 3 .8 3 .8 3 .8 3 .7 3 .7 3 .7 3 .7 3 .6 3 .6 3 .7 3 .6 3 .5 3 .6 3 .6 3 .7 3 .6 3 .7 3 .7 3 .7 3 .8 3 .9 3 .8 3 1 3 1 3 1 3 1 3 1.2 3 1 3 1.2 3 1.1 3 1.1 3 1 3 1.1 3 1 3 1 3 1 3 .8 3 .8 3 .7 3 .7 3 .6 3 .5 3 .5 3 .4 3 .3 3 .3 3 .2 3 .2 3 .1 3 .1h30l3 .2 3 .1 3 .2 3 .2 3 .3 3 .3 3 .4 3 .4 3 .4 3 .6 3 .5 3 .7 3 .6 3 .7 3 .7 3 .7 3 .8 3 .7 3 .8 3 .7 3 .7 3 .6 3 .6 3 .6 3 .4 3 .4 3 .4 3 .2 3 .1h6l3-.2 3-.2 3-.4 3-.4 3-.5 3-.6 3-.7 3-.7 3-.8 3-.8 3-.9 3-.9 3-1 3-.9 3-.9 3-1 3-.9 3-.9 3-.9 3-.8 3-.8 3-.7 3-.7 3-.6 3-.6 3-.4 3-.4 3-.3 3-.2 3-.1h6l3 .1 3 .2 3 .3 3 .3 3 .4 3 .4 3 .5 3 .5 3 .5 3 .5 3 .6 3 .5 3 .5 3 .5 3 .4 3 .4"/>
    <path d="M50 264.5l3-1 3-.9 3-1 3-.9 3-.9 3-1 3-.9 3-1 3-.9 3-1 3-.9 3-.9 3-.9 3-.9 3-.8 3-.8 3-.8 3-.8 3-.6 3-.7 3-.5 3-.5 3-.4 3-.3 3-.2h9l3 .3 3 .4 3 .5 3 .6 3 .8 3 .9 3 1 3 1.2 3 1.3 3 1.4 3 1.6 3 1.7 3 1.7 3 1.9 3 2 3 2 3 2 3 2 3 2.2 3 2.1 3 2.2 3 2 3 2.2 3 2 3 2 3 2 3 1.8 3 1.8 3 1.7 3 1.5 3 1.5 3 1.3 3 1.2 3 1 3 .9 3 .8 3 .6 3 .5 3 .3 3 .3h3l3 .1h3l3-.3 3-.2 3-.4 3-.4 3-.5 3-.5 3-.6 3-.7 3-.7 3-.8 3-.7 3-.9 3-.8 3-.9 3-.9 3-.9 3-.9 3-1 3-1 3-.9 3-1 3-1 3-1 3-1 3-1 3-1.1 3-1.1 3-1.2 3-1.1 3-1.2 3-1.2 3-1.3 3-1.3 3-1.4 3-1.5 3-1.5 3-1.6 3-1.6 3-1.8 3-1.8 3-1.9 3-2 3-2 3-2 3-2.1 3-2.1 3-2.2 3-2 3-2.2 3-2 3-2 3-2 3-2 3-1.8 3-1.7 3-1.6 3-1.5 3-1.4 3-1.3 3-1.1 3-1 3-.9 3-.7 3-.5 3-.4 3-.3 3-.1h3l3 .2 3 .3 3 .4 3 .6 3 .6 3 .7 3 .9 3 .9 3 1 3 1 3 1 3 1 3 1.2 3 1.1 3 1.2 3 1.1 3 1.1 3 1.2 3 1 3 1.2 3 1 3 1 3 1 3 1 3 .9 3 .9 3 .8 3 .8 3 .7 3 .7 3 .7 3 .6 3 .7 3 .6 3 .6 3 .6 3 .6 3 .6 3 .6 3 .7 3 .7 3 .7 3 .8 3 .8 3 .8 3 .9 3 .8 3 .9 3 .9 3 .8 3 .8 3 .8 3 .8 3 .7 3 .7 3 .6 3 .6 3 .5 3 .5 3 .3 3 .4 3 .2 3 .2 3 .2h3l3 .1h12l3-.1 3-.1h3l3-.2h12l3 .1 3 .2 3 .2 3 .3 3 .3 3 .4 3 .5 3 .6 3 .7 3 .7 3 .8 3 .9 3 1 3 1 3 1 3 1.1 3 1.2 3 1.1 3 1.2 3 1.3 3 1.2 3 1.2 3 1.1 3 1.2 3 1 3 1 3 1 3 .9 3 .7 3 .7 3 .6 3 .4 3 .3 3 .2 3 .1h3l3-.1 3-.2 3-.4 3-.5 3-.5 3-.7 3-.8 3-.8 3-1 3-1 3-1 3-1 3-1.2 3-1.2 3-1.2 3-1.2 3-1.2 3-1.3 3-1.2 3-1.1 3-1.2 3-1 3-1.1 3-1 3-.9 3-.8 3-.8 3-.7 3-.6 3-.5 3-.5 3-.3 3-.3 3-.2h3l3-.1h6l3 .2 3 .2 3 .1 3 .3 3 .2 3 .2 3 .2 3 .3"/>
    <path d="M50 286l3-1.3 3-1.2 3-1.2 3-1.2 3-1.1 3-1.2 3-1.2 3-1.2 3-1.1 3-1.2 3-1.1 3-1.2 3-1 3-1.1 3-1 3-1 3-1 3-.8 3-.9 3-.7 3-.7 3-.6 3-.5 3-.4 3-.3 3-.2 3-.1h3l3 .2 3 .2 3 .4 3 .6 3 .7 3 .8 3 1 3 1 3 1.3 3 1.4 3 1.5 3 1.6 3 1.7 3 1.9 3 1.9 3 2 3 2 3 2.2 3 2.1 3 2.2 3 2.2 3 2.2 3 2.2 3 2.2 3 2.2 3 2 3 2 3 2 3 1.9 3 1.8 3 1.6 3 1.6 3 1.4 3 1.2 3 1.2 3 1 3 .8 3 .7 3 .6 3 .4 3 .3 3 .2h9l3-.3 3-.4 3-.4 3-.5 3-.6 3-.6 3-.7 3-.8 3-.8 3-1 3-.9 3-1 3-1 3-1 3-1.1 3-1.1 3-1.2 3-1.1 3-1.2 3-1.2 3-1.2 3-1.3 3-1.2 3-1.3 3-1.3 3-1.3 3-1.3 3-1.4 3-1.3 3-1.4 3-1.5 3-1.5 3-1.5 3-1.6 3-1.6 3-1.7 3-1.7 3-1.8 3-1.9 3-1.9 3-1.9 3-2 3-2 3-2 3-2 3-1.9 3-2 3-1.8 3-1.9 3-1.8 3-1.7 3-1.6 3-1.5 3-1.4 3-1.3 3-1.2 3-1 3-1 3-.8 3-.6 3-.5 3-.4 3-.3h6l3 .2 3 .3 3 .4 3 .6 3 .7 3 .8 3 .9 3 1 3 1 3 1.2 3 1.2 3 1.2 3 1.3 3 1.3 3 1.3 3 1.4 3 1.3 3 1.3 3 1.4 3 1.2 3 1.3 3 1.2 3 1.2 3 1.2 3 1 3 1.1 3 1 3 1 3 .9 3 .8 3 .8 3 .8 3 .7 3 .7 3 .7 3 .6 3 .6 3 .6 3 .6 3 .7 3 .6 3 .6 3 .7 3 .7 3 .7 3 .7 3 .7 3 .7 3 .6 3 .7 3 .6 3 .6 3 .5 3 .5 3 .4 3 .3 3 .3 3 .2 3 .1h9l3-.1 3-.2 3-.2 3-.2 3-.3 3-.3 3-.4 3-.3 3-.3 3-.3 3-.2 3-.3 3-.2 3-.1h3l3-.1h3l3 .2 3 .2 3 .3 3 .4 3 .5 3 .6 3 .7 3 .8 3 .9 3 1 3 1 3 1.2 3 1.3 3 1.3 3 1.5 3 1.4 3 1.6 3 1.5 3 1.6 3 1.6 3 1.6 3 1.6 3 1.5 3 1.6 3 1.4 3 1.4 3 1.3 3 1.2 3 1 3 1 3 1 3 .7 3 .7 3 .5 3 .4 3 .2 3 .1h3l3-.2 3-.3 3-.4 3-.5 3-.7 3-.8 3-1 3-1 3-1 3-1.2 3-1.3 3-1.4 3-1.4 3-1.4 3-1.5 3-1.5 3-1.6 3-1.5 3-1.5 3-1.6 3-1.4 3-1.5 3-1.4 3-1.3 3-1.3 3-1.2 3-1.1 3-1 3-1 3-.8 3-.8 3-.7 3-.6 3-.5 3-.4 3-.3 3-.3 3-.2 3-.1h3l3-.1h9"/>
    <path d="M50 306.1l3-1.3 3-1.4 3-1.4 3-1.3 3-1.3 3-1.3 3-1.4 3-1.3 3-1.2 3-1.3 3-1.3 3-1.2 3-1.2 3-1.2 3-1 3-1.2 3-1 3-1 3-.9 3-.8 3-.8 3-.7 3-.6 3-.5 3-.5 3-.3 3-.2h9l3 .4 3 .4 3 .5 3 .7 3 .8 3 1 3 1 3 1.3 3 1.3 3 1.5 3 1.7 3 1.7 3 1.8 3 2 3 2 3 2 3 2.2 3 2.2 3 2.2 3 2.3 3 2.2 3 2.3 3 2.2 3 2.2 3 2.2 3 2 3 2 3 2 3 1.8 3 1.7 3 1.6 3 1.5 3 1.3 3 1.2 3 1 3 1 3 .8 3 .6 3 .5 3 .4 3 .3h9l3-.2 3-.4 3-.4 3-.5 3-.6 3-.7 3-.8 3-.8 3-1 3-1 3-1 3-1 3-1.2 3-1.2 3-1.2 3-1.3 3-1.3 3-1.3 3-1.3 3-1.3 3-1.4 3-1.4 3-1.3 3-1.4 3-1.4 3-1.4 3-1.4 3-1.5 3-1.4 3-1.5 3-1.5 3-1.5 3-1.5 3-1.6 3-1.6 3-1.6 3-1.7 3-1.7 3-1.8 3-1.8 3-1.8 3-1.8 3-1.8 3-1.7 3-1.8 3-1.7 3-1.7 3-1.6 3-1.5 3-1.5 3-1.4 3-1.2 3-1.2 3-1.1 3-1 3-.9 3-.7 3-.7 3-.5 3-.4 3-.3 3-.1h3l3 .1 3 .3 3 .3 3 .6 3 .6 3 .7 3 .9 3 1 3 1 3 1.1 3 1.2 3 1.3 3 1.4 3 1.3 3 1.4 3 1.5 3 1.4 3 1.5 3 1.4 3 1.5 3 1.4 3 1.4 3 1.3 3 1.4 3 1.2 3 1.3 3 1.1 3 1.1 3 1.1 3 1 3 1 3 .9 3 .8 3 .9 3 .7 3 .8 3 .7 3 .7 3 .6 3 .7 3 .7 3 .6 3 .7 3 .6 3 .7 3 .6 3 .7 3 .6 3 .5 3 .6 3 .4 3 .4 3 .4 3 .3 3 .1 3 .2h3l3-.1 3-.2 3-.2 3-.3 3-.4 3-.5 3-.5 3-.6 3-.6 3-.6 3-.7 3-.7 3-.6 3-.7 3-.6 3-.6 3-.5 3-.5 3-.4 3-.3 3-.2 3-.1h6l3 .3 3 .3 3 .5 3 .5 3 .7 3 .8 3 1 3 1 3 1.2 3 1.2 3 1.4 3 1.5 3 1.6 3 1.6 3 1.7 3 1.8 3 1.8 3 1.9 3 1.9 3 1.8 3 2 3 1.7 3 1.8 3 1.8 3 1.7 3 1.6 3 1.5 3 1.4 3 1.3 3 1.2 3 1 3 1 3 .8 3 .7 3 .5 3 .3 3 .3h6l3-.3 3-.4 3-.6 3-.7 3-.8 3-1 3-1 3-1.3 3-1.3 3-1.4 3-1.5 3-1.6 3-1.7 3-1.7 3-1.8 3-1.8 3-1.8 3-1.8 3-1.8 3-1.8 3-1.8 3-1.7 3-1.7 3-1.6 3-1.6 3-1.4 3-1.4 3-1.3 3-1.2 3-1 3-1 3-1 3-.8 3-.6 3-.7 3-.5 3-.4 3-.4 3-.3 3-.3 3-.2 3-.2"/>
    <path d="M50 325l3-1.3 3-1.4 3-1.4 3-1.4 3-1.4 3-1.3 3-1.4 3-1.3 3-1.3 3-1.3 3-1.2 3-1.3 3-1.2 3-1.2 3-1.1 3-1.1 3-1 3-1 3-1 3-1 3-.8 3-.7 3-.7 3-.6 3-.5 3-.5 3-.3 3-.2 3-.1h6l3 .3 3 .4 3 .5 3 .6 3 .7 3 1 3 1 3 1.2 3 1.3 3 1.4 3 1.6 3 1.7 3 1.8 3 2 3 2 3 2 3 2.2 3 2.1 3 2.3 3 2.2 3 2.3 3 2.2 3 2.3 3 2.2 3 2.1 3 2.1 3 2 3 2 3 1.8 3 1.8 3 1.6 3 1.5 3 1.4 3 1.2 3 1.2 3 1 3 .8 3 .6 3 .6 3 .4 3 .3 3 .1h3l3-.1 3-.3 3-.3 3-.5 3-.6 3-.6 3-.8 3-.9 3-1 3-1 3-1 3-1.2 3-1.1 3-1.3 3-1.3 3-1.3 3-1.3 3-1.3 3-1.4 3-1.4 3-1.4 3-1.4 3-1.3 3-1.4 3-1.4 3-1.4 3-1.4 3-1.3 3-1.4 3-1.4 3-1.4 3-1.4 3-1.4 3-1.4 3-1.4 3-1.5 3-1.5 3-1.5 3-1.5 3-1.5 3-1.6 3-1.5 3-1.5 3-1.5 3-1.5 3-1.4 3-1.4 3-1.3 3-1.3 3-1.2 3-1.1 3-1 3-1 3-1 3-.7 3-.8 3-.6 3-.5 3-.4 3-.4 3-.2h6l3 .1 3 .3 3 .3 3 .5 3 .6 3 .7 3 .8 3 1 3 1 3 1 3 1.2 3 1.3 3 1.3 3 1.4 3 1.4 3 1.4 3 1.5 3 1.5 3 1.5 3 1.5 3 1.4 3 1.5 3 1.4 3 1.4 3 1.4 3 1.3 3 1.3 3 1.2 3 1.2 3 1 3 1.2 3 1 3 1 3 1 3 .8 3 .9 3 .8 3 .8 3 .8 3 .8 3 .8 3 .7 3 .7 3 .8 3 .6 3 .7 3 .6 3 .6 3 .5 3 .4 3 .3 3 .3 3 .1 3 .1h3l3-.2 3-.3 3-.4 3-.5 3-.5 3-.7 3-.8 3-.8 3-1 3-1 3-1 3-1 3-1 3-1.1 3-1 3-1.1 3-1 3-1 3-.8 3-.7 3-.7 3-.5 3-.5 3-.3 3-.1h6l3 .3 3 .4 3 .6 3 .7 3 .8 3 1 3 1.1 3 1.2 3 1.4 3 1.5 3 1.6 3 1.7 3 1.7 3 1.9 3 2 3 1.9 3 2 3 2 3 2 3 2.1 3 2 3 2 3 2 3 2 3 1.8 3 1.7 3 1.7 3 1.6 3 1.4 3 1.4 3 1.2 3 1 3 1 3 .8 3 .6 3 .5 3 .3h6l3-.1 3-.4 3-.5 3-.7 3-.9 3-1 3-1.1 3-1.3 3-1.4 3-1.5 3-1.7 3-1.7 3-1.8 3-1.9 3-2 3-1.9 3-2 3-2 3-2 3-2 3-2 3-2 3-2 3-1.8 3-1.8 3-1.7 3-1.6 3-1.5 3-1.4 3-1.4 3-1.2 3-1.1 3-1 3-1 3-.8 3-.7 3-.6 3-.6 3-.5 3-.4 3-.4"/>
    <path d="M50 343l3-1.4 3-1.3 3-1.4 3-1.3 3-1.2 3-1.3 3-1.3 3-1.2 3-1.2 3-1.2 3-1.2 3-1.1 3-1.1 3-1.2 3-1 3-1 3-1.1 3-1 3-1 3-.8 3-.8 3-.8 3-.7 3-.7 3-.6 3-.5 3-.4 3-.4 3-.2 3-.2h6l3 .2 3 .3 3 .4 3 .6 3 .7 3 .8 3 1 3 1 3 1.3 3 1.4 3 1.5 3 1.7 3 1.7 3 1.9 3 2 3 2 3 2 3 2.1 3 2.2 3 2.2 3 2.2 3 2.3 3 2.1 3 2.2 3 2.1 3 2.1 3 2 3 2 3 1.8 3 1.7 3 1.7 3 1.5 3 1.4 3 1.2 3 1 3 1 3 .8 3 .7 3 .5 3 .3 3 .2h6l3-.2 3-.4 3-.4 3-.6 3-.7 3-.8 3-.8 3-1 3-1 3-1.1 3-1.2 3-1.2 3-1.2 3-1.3 3-1.3 3-1.3 3-1.3 3-1.3 3-1.4 3-1.3 3-1.3 3-1.3 3-1.3 3-1.3 3-1.2 3-1.2 3-1.2 3-1.2 3-1.2 3-1.2 3-1.2 3-1.1 3-1.2 3-1.2 3-1.2 3-1.1 3-1.2 3-1.2 3-1.3 3-1.2 3-1.2 3-1.1 3-1.2 3-1.1 3-1 3-1.1 3-1 3-1 3-1 3-.8 3-.9 3-.8 3-.7 3-.6 3-.6 3-.6 3-.4 3-.4 3-.3 3-.2h9l3 .2 3 .3 3 .3 3 .5 3 .6 3 .7 3 .8 3 .9 3 1 3 1 3 1.2 3 1.2 3 1.2 3 1.4 3 1.3 3 1.4 3 1.4 3 1.5 3 1.5 3 1.4 3 1.5 3 1.4 3 1.4 3 1.5 3 1.3 3 1.4 3 1.3 3 1.3 3 1.2 3 1.2 3 1.2 3 1.1 3 1.1 3 1 3 1.1 3 1 3 1 3 1 3 1 3 .8 3 1 3 .8 3 .8 3 .8 3 .7 3 .7 3 .5 3 .5 3 .4 3 .3 3 .1h6l3-.3 3-.4 3-.5 3-.6 3-.8 3-1 3-1 3-1 3-1.2 3-1.3 3-1.4 3-1.4 3-1.5 3-1.4 3-1.5 3-1.4 3-1.4 3-1.4 3-1.3 3-1.2 3-1.1 3-1 3-.9 3-.7 3-.6 3-.4 3-.2h6l3 .3 3 .4 3 .6 3 .8 3 1 3 1 3 1.2 3 1.4 3 1.5 3 1.6 3 1.7 3 1.8 3 1.9 3 2 3 2 3 2 3 2.2 3 2.2 3 2.1 3 2.2 3 2.1 3 2.1 3 2.1 3 2 3 2 3 1.9 3 1.7 3 1.7 3 1.6 3 1.4 3 1.4 3 1.1 3 1 3 1 3 .7 3 .5 3 .4 3 .2h3l3-.1 3-.3 3-.5 3-.7 3-.8 3-1 3-1.2 3-1.3 3-1.4 3-1.6 3-1.7 3-1.7 3-2 3-1.9 3-2 3-2 3-2.2 3-2.1 3-2.2 3-2.1 3-2.1 3-2.1 3-2 3-2 3-2 3-1.8 3-1.8 3-1.7 3-1.5 3-1.5 3-1.4 3-1.3 3-1.1 3-1 3-1 3-1 3-.7 3-.7 3-.6 3-.6"/>
    <path d="M50 360.1l3-1.2 3-1.2 3-1.2 3-1 3-1.2 3-1 3-1.1 3-1 3-1 3-1 3-1 3-1 3-1 3-1 3-.9 3-.9 3-.9 3-.8 3-.9 3-.8 3-.8 3-.7 3-.7 3-.7 3-.6 3-.6 3-.5 3-.4 3-.4 3-.2 3-.2 3-.1h6l3 .3 3 .4 3 .4 3 .6 3 .8 3 .9 3 1 3 1.1 3 1.3 3 1.5 3 1.5 3 1.7 3 1.7 3 1.9 3 1.9 3 2 3 2 3 2.1 3 2.1 3 2.2 3 2.1 3 2.1 3 2.1 3 2 3 2 3 2 3 1.9 3 1.7 3 1.7 3 1.5 3 1.4 3 1.3 3 1 3 1 3 .8 3 .7 3 .5 3 .3 3 .2h6l3-.3 3-.4 3-.5 3-.6 3-.7 3-.8 3-.9 3-1 3-1 3-1 3-1.2 3-1.2 3-1.2 3-1.2 3-1.2 3-1.2 3-1.3 3-1.2 3-1.2 3-1.2 3-1.1 3-1.1 3-1.1 3-1 3-1 3-1 3-1 3-1 3-.8 3-.9 3-.9 3-.8 3-.8 3-.8 3-.9 3-.8 3-.8 3-.8 3-.9 3-.8 3-.8 3-.8 3-.7 3-.8 3-.7 3-.7 3-.7 3-.7 3-.7 3-.6 3-.7 3-.6 3-.5 3-.6 3-.5 3-.4 3-.5 3-.3 3-.3 3-.3 3-.1 3-.1h6l3 .1 3 .3 3 .3 3 .4 3 .5 3 .6 3 .7 3 .8 3 .8 3 1 3 1 3 1 3 1.2 3 1.2 3 1.3 3 1.3 3 1.3 3 1.4 3 1.4 3 1.4 3 1.4 3 1.4 3 1.4 3 1.4 3 1.4 3 1.4 3 1.4 3 1.4 3 1.3 3 1.3 3 1.3 3 1.3 3 1.3 3 1.3 3 1.2 3 1.2 3 1.2 3 1.1 3 1.2 3 1 3 1 3 1 3 1 3 .8 3 .7 3 .6 3 .6 3 .4 3 .2 3 .1h3l3-.2 3-.4 3-.5 3-.7 3-.9 3-1 3-1.1 3-1.3 3-1.4 3-1.6 3-1.6 3-1.7 3-1.8 3-1.8 3-1.8 3-1.9 3-1.8 3-1.8 3-1.8 3-1.7 3-1.5 3-1.5 3-1.4 3-1.2 3-1 3-1 3-.7 3-.5 3-.3 3-.2h3l3 .3 3 .4 3 .6 3 .8 3 1 3 1 3 1.3 3 1.4 3 1.5 3 1.6 3 1.8 3 1.9 3 1.9 3 2 3 2.1 3 2.1 3 2.2 3 2.2 3 2.3 3 2.2 3 2.2 3 2.2 3 2.2 3 2 3 2.1 3 2 3 1.8 3 1.8 3 1.6 3 1.6 3 1.4 3 1.2 3 1.2 3 1 3 .7 3 .6 3 .5 3 .3h6l3-.3 3-.4 3-.6 3-.8 3-1 3-1 3-1.3 3-1.4 3-1.6 3-1.7 3-1.7 3-2 3-1.9 3-2 3-2.1 3-2.2 3-2.1 3-2.2 3-2.2 3-2.2 3-2.1 3-2.1 3-2 3-2 3-2 3-1.8 3-1.8 3-1.6 3-1.6 3-1.4 3-1.3 3-1.3 3-1.1 3-1 3-1 3-.8 3-.8 3-.7"/>
    <path d="M50 376.9l3-1 3-1 3-.9 3-.9 3-.8 3-.8 3-.7 3-.8 3-.7 3-.7 3-.7 3-.7 3-.7 3-.7 3-.7 3-.7 3-.7 3-.7 3-.7 3-.7 3-.7 3-.7 3-.6 3-.6 3-.6 3-.6 3-.5 3-.5 3-.4 3-.4 3-.3 3-.3 3-.1h6l3 .1 3 .3 3 .4 3 .5 3 .6 3 .8 3 1 3 1 3 1.2 3 1.3 3 1.5 3 1.5 3 1.7 3 1.7 3 1.8 3 1.9 3 1.9 3 2 3 2 3 2 3 2 3 2 3 2 3 1.8 3 1.8 3 1.8 3 1.7 3 1.5 3 1.4 3 1.3 3 1.2 3 1 3 .9 3 .7 3 .5 3 .4 3 .2 3 .1h3l3-.2 3-.4 3-.4 3-.6 3-.6 3-.8 3-.8 3-1 3-1 3-1 3-1 3-1 3-1.2 3-1 3-1.2 3-1 3-1.2 3-1 3-1 3-1 3-1 3-.9 3-.8 3-.9 3-.7 3-.7 3-.7 3-.6 3-.6 3-.5 3-.5 3-.5 3-.4 3-.4 3-.5 3-.4 3-.4 3-.4 3-.4 3-.3 3-.4 3-.4 3-.4 3-.4 3-.3 3-.4 3-.4 3-.4 3-.4 3-.5 3-.4 3-.4 3-.5 3-.4 3-.5 3-.5 3-.4 3-.4 3-.4 3-.4 3-.3 3-.3 3-.3 3-.1 3-.2h6l3 .1 3 .2 3 .3 3 .3 3 .4 3 .6 3 .6 3 .7 3 .7 3 .9 3 1 3 1 3 1 3 1.1 3 1.2 3 1.2 3 1.3 3 1.3 3 1.4 3 1.4 3 1.4 3 1.4 3 1.5 3 1.4 3 1.5 3 1.5 3 1.5 3 1.5 3 1.5 3 1.5 3 1.5 3 1.5 3 1.5 3 1.4 3 1.5 3 1.4 3 1.3 3 1.3 3 1.2 3 1.2 3 1 3 1 3 .9 3 .7 3 .6 3 .4 3 .3 3 .1h3l3-.3 3-.4 3-.6 3-.8 3-1 3-1.2 3-1.4 3-1.5 3-1.6 3-1.8 3-1.9 3-2 3-2 3-2.2 3-2.2 3-2.2 3-2.2 3-2.2 3-2 3-2.1 3-2 3-1.9 3-1.7 3-1.6 3-1.4 3-1.3 3-1 3-1 3-.6 3-.5 3-.2h6l3 .4 3 .5 3 .8 3 .9 3 1 3 1.3 3 1.3 3 1.6 3 1.6 3 1.7 3 1.9 3 2 3 2 3 2 3 2.2 3 2.2 3 2.3 3 2.2 3 2.3 3 2.2 3 2.3 3 2.1 3 2.2 3 2 3 2 3 2 3 1.8 3 1.7 3 1.6 3 1.5 3 1.3 3 1.2 3 1 3 .9 3 .7 3 .5 3 .4 3 .1h3l3-.2 3-.3 3-.6 3-.7 3-.9 3-1 3-1.2 3-1.4 3-1.5 3-1.6 3-1.8 3-1.8 3-2 3-2 3-2 3-2.2 3-2.1 3-2.2 3-2.2 3-2.1 3-2.2 3-2 3-2 3-2 3-2 3-1.8 3-1.7 3-1.6 3-1.6 3-1.4 3-1.3 3-1.2 3-1.1 3-1 3-1 3-.8 3-.8"/>
    <path d="M50 393.7l3-.7 3-.7 3-.5 3-.6 3-.4 3-.5 3-.4 3-.4 3-.4 3-.4 3-.4 3-.3 3-.4 3-.4 3-.5 3-.4 3-.5 3-.5 3-.5 3-.5 3-.5 3-.6 3-.5 3-.6 3-.5 3-.6 3-.5 3-.5 3-.5 3-.4 3-.4 3-.4 3-.2 3-.2 3-.2h3l3 .1 3 .2 3 .3 3 .5 3 .5 3 .7 3 .9 3 1 3 1 3 1.3 3 1.3 3 1.5 3 1.5 3 1.6 3 1.7 3 1.8 3 1.7 3 1.9 3 1.8 3 1.8 3 1.8 3 1.7 3 1.7 3 1.7 3 1.5 3 1.4 3 1.4 3 1.2 3 1 3 1 3 .8 3 .6 3 .5 3 .3 3 .2 3 .1h3l3-.3 3-.3 3-.5 3-.5 3-.7 3-.7 3-.9 3-.8 3-1 3-.9 3-1 3-1 3-1 3-1 3-1 3-1 3-.9 3-.8 3-.9 3-.8 3-.7 3-.6 3-.6 3-.6 3-.4 3-.4 3-.4 3-.2 3-.3 3-.1 3-.1 3-.1h18l3 .1h3l3 .1h3l3 .1h12l3-.1 3-.2 3-.1 3-.3 3-.2 3-.3 3-.4 3-.4 3-.4 3-.4 3-.5 3-.5 3-.5 3-.4 3-.5 3-.5 3-.4 3-.4 3-.3 3-.3 3-.3 3-.1 3-.1h6l3 .2 3 .2 3 .4 3 .4 3 .5 3 .6 3 .7 3 .8 3 .9 3 .9 3 1 3 1.1 3 1.2 3 1.2 3 1.3 3 1.3 3 1.4 3 1.5 3 1.5 3 1.6 3 1.6 3 1.6 3 1.6 3 1.7 3 1.7 3 1.8 3 1.7 3 1.7 3 1.7 3 1.7 3 1.7 3 1.6 3 1.6 3 1.5 3 1.4 3 1.3 3 1.2 3 1.2 3 1 3 .8 3 .7 3 .6 3 .3 3 .2h3l3-.3 3-.4 3-.7 3-.8 3-1.1 3-1.3 3-1.4 3-1.7 3-1.8 3-2 3-2 3-2.3 3-2.3 3-2.4 3-2.5 3-2.5 3-2.5 3-2.5 3-2.5 3-2.4 3-2.3 3-2.2 3-2.1 3-2 3-1.8 3-1.6 3-1.4 3-1.3 3-1 3-.8 3-.6 3-.4 3-.2h3l3 .3 3 .5 3 .6 3 .8 3 1 3 1.2 3 1.3 3 1.5 3 1.6 3 1.7 3 1.8 3 2 3 2 3 2 3 2.1 3 2.2 3 2.2 3 2.3 3 2.2 3 2.3 3 2.2 3 2.2 3 2.1 3 2 3 2.1 3 2 3 1.8 3 1.7 3 1.6 3 1.5 3 1.4 3 1.2 3 1 3 1 3 .7 3 .6 3 .4 3 .3h3l3-.1 3-.3 3-.5 3-.7 3-.8 3-1 3-1.2 3-1.3 3-1.5 3-1.5 3-1.7 3-1.8 3-2 3-1.9 3-2 3-2 3-2.1 3-2.1 3-2.1 3-2 3-2.1 3-2 3-2 3-1.9 3-1.8 3-1.7 3-1.6 3-1.5 3-1.5 3-1.3 3-1.2 3-1.2 3-1 3-.9 3-.8 3-.8"/>
    <path d="M50 411l3-.3 3-.3 3-.3 3-.1 3-.2h3l3-.1h6l3-.1h3l3-.1h3l3-.2 3-.2 3-.1 3-.2 3-.3 3-.3 3-.3 3-.4 3-.4 3-.5 3-.4 3-.5 3-.5 3-.5 3-.5 3-.5 3-.5 3-.5 3-.4 3-.4 3-.3 3-.2 3-.2h6l3 .2 3 .2 3 .4 3 .6 3 .6 3 .8 3 1 3 1 3 1.1 3 1.3 3 1.4 3 1.4 3 1.5 3 1.6 3 1.5 3 1.7 3 1.6 3 1.5 3 1.6 3 1.5 3 1.4 3 1.3 3 1.3 3 1.1 3 1 3 1 3 .7 3 .6 3 .5 3 .4 3 .2h6l3-.2 3-.3 3-.4 3-.5 3-.6 3-.7 3-.8 3-.8 3-.9 3-.9 3-1 3-.9 3-.9 3-1 3-.8 3-.9 3-.8 3-.8 3-.7 3-.6 3-.6 3-.5 3-.4 3-.4 3-.2 3-.2h9l3 .1 3 .2 3 .3 3 .3 3 .4 3 .4 3 .4 3 .5 3 .5 3 .5 3 .4 3 .5 3 .5 3 .5 3 .5 3 .4 3 .4 3 .4 3 .3 3 .2 3 .2h12l3-.3 3-.3 3-.3 3-.5 3-.5 3-.5 3-.6 3-.6 3-.6 3-.7 3-.7 3-.6 3-.7 3-.6 3-.5 3-.6 3-.4 3-.4 3-.3 3-.3 3-.1h6l3 .2 3 .2 3 .4 3 .4 3 .6 3 .7 3 .7 3 1 3 .9 3 1 3 1.2 3 1.3 3 1.3 3 1.4 3 1.5 3 1.6 3 1.7 3 1.7 3 1.7 3 1.9 3 1.8 3 2 3 1.9 3 2 3 1.9 3 1.9 3 1.9 3 1.8 3 1.8 3 1.8 3 1.7 3 1.6 3 1.5 3 1.4 3 1.2 3 1.2 3 1 3 .8 3 .6 3 .5 3 .2h6l3-.5 3-.6 3-.9 3-1 3-1.4 3-1.5 3-1.7 3-2 3-2 3-2.3 3-2.3 3-2.5 3-2.6 3-2.7 3-2.7 3-2.8 3-2.7 3-2.8 3-2.7 3-2.6 3-2.5 3-2.4 3-2.3 3-2.2 3-2 3-1.7 3-1.6 3-1.4 3-1.2 3-1 3-.6 3-.5 3-.3h6l3 .5 3 .5 3 .8 3 1 3 1 3 1.2 3 1.4 3 1.5 3 1.7 3 1.7 3 1.9 3 1.9 3 2 3 2 3 2.2 3 2.2 3 2.1 3 2.2 3 2.2 3 2.2 3 2.2 3 2 3 2.1 3 2 3 1.9 3 1.8 3 1.7 3 1.6 3 1.5 3 1.4 3 1.2 3 1 3 1 3 .7 3 .6 3 .4 3 .2h6l3-.4 3-.5 3-.6 3-.9 3-1 3-1 3-1.3 3-1.4 3-1.6 3-1.6 3-1.7 3-1.8 3-1.9 3-1.9 3-2 3-1.9 3-2 3-2 3-1.8 3-2 3-1.8 3-1.8 3-1.7 3-1.6 3-1.6 3-1.4 3-1.4 3-1.2 3-1.2 3-1 3-1 3-.8 3-.8 3-.7"/>
    <path d="M50 429.3h9l3 .2 3 .2 3 .2 3 .3 3 .3 3 .3 3 .2 3 .3 3 .2 3 .2 3 .2 3 .1h3l3 .1h3l3-.1 3-.2 3-.2 3-.3 3-.3 3-.4 3-.4 3-.4 3-.5 3-.5 3-.5 3-.5 3-.5 3-.4 3-.5 3-.3 3-.4 3-.2 3-.2h6l3 .1 3 .3 3 .4 3 .5 3 .7 3 .8 3 .9 3 1 3 1 3 1.3 3 1.3 3 1.3 3 1.4 3 1.3 3 1.4 3 1.4 3 1.3 3 1.3 3 1.2 3 1.1 3 1 3 1 3 .8 3 .7 3 .5 3 .4 3 .3 3 .2h3l3-.1 3-.2 3-.4 3-.4 3-.6 3-.6 3-.7 3-.8 3-.8 3-.9 3-.9 3-1 3-.8 3-1 3-.9 3-.8 3-.9 3-.7 3-.7 3-.7 3-.5 3-.5 3-.4 3-.3 3-.2h9l3 .2 3 .3 3 .4 3 .5 3 .6 3 .6 3 .7 3 .7 3 .8 3 .9 3 .8 3 1 3 .8 3 1 3 .9 3 .9 3 .8 3 1 3 .7 3 .8 3 .7 3 .7 3 .6 3 .4 3 .4 3 .3 3 .2h6l3-.2 3-.3 3-.3 3-.5 3-.6 3-.6 3-.8 3-.7 3-.9 3-.9 3-.9 3-.9 3-.9 3-.9 3-.8 3-.9 3-.7 3-.7 3-.7 3-.5 3-.4 3-.4 3-.2 3-.1h3l3 .1 3 .3 3 .4 3 .5 3 .6 3 .8 3 .9 3 1 3 1.1 3 1.3 3 1.3 3 1.5 3 1.6 3 1.6 3 1.8 3 1.8 3 2 3 2 3 2 3 2 3 2.1 3 2.1 3 2.1 3 2 3 2.1 3 2 3 2 3 2 3 1.7 3 1.8 3 1.6 3 1.5 3 1.4 3 1.3 3 1.1 3 1 3 .7 3 .6 3 .3 3 .1h3l3-.4 3-.6 3-.8 3-1 3-1.3 3-1.5 3-1.7 3-2 3-2.1 3-2.3 3-2.4 3-2.6 3-2.7 3-2.8 3-3 3-2.8 3-3 3-2.9 3-2.9 3-2.8 3-2.8 3-2.7 3-2.5 3-2.4 3-2.3 3-2 3-2 3-1.6 3-1.5 3-1.2 3-1 3-.9 3-.5 3-.4 3-.1h3l3 .4 3 .5 3 .6 3 .9 3 1 3 1.1 3 1.3 3 1.4 3 1.6 3 1.6 3 1.8 3 1.8 3 1.9 3 2 3 2 3 2 3 2.1 3 2.1 3 2.1 3 2.1 3 2 3 2.1 3 2 3 1.9 3 1.8 3 1.7 3 1.6 3 1.6 3 1.3 3 1.3 3 1.1 3 1 3 .8 3 .6 3 .5 3 .4 3 .1h3l3-.2 3-.3 3-.5 3-.7 3-.8 3-1 3-1.1 3-1.2 3-1.4 3-1.4 3-1.6 3-1.6 3-1.7 3-1.7 3-1.8 3-1.8 3-1.8 3-1.7 3-1.8 3-1.7 3-1.7 3-1.6 3-1.6 3-1.5 3-1.4 3-1.3 3-1.2 3-1.1 3-1 3-1 3-.8 3-.7 3-.6 3-.6"/>
    <path d="M50 448.8l3 .1 3 .2 3 .4 3 .4 3 .4 3 .5 3 .5 3 .6 3 .5 3 .5 3 .6 3 .4 3 .5 3 .4 3 .3 3 .3 3 .2 3 .1 3 .1h6l3-.2 3-.2 3-.3 3-.3 3-.4 3-.4 3-.5 3-.4 3-.5 3-.5 3-.5 3-.5 3-.4 3-.4 3-.3 3-.2 3-.1h6l3 .2 3 .3 3 .5 3 .6 3 .6 3 .8 3 1 3 1 3 1 3 1.1 3 1.2 3 1.2 3 1.2 3 1.1 3 1.1 3 1.1 3 1 3 1 3 .8 3 .7 3 .6 3 .5 3 .4 3 .2h9l3-.4 3-.4 3-.5 3-.6 3-.7 3-.7 3-.9 3-.9 3-.9 3-1 3-1 3-.9 3-1 3-.9 3-.9 3-.8 3-.8 3-.7 3-.7 3-.5 3-.5 3-.3 3-.2 3-.2h3l3 .1 3 .3 3 .3 3 .5 3 .6 3 .6 3 .8 3 .9 3 1 3 1 3 1 3 1.2 3 1.2 3 1.2 3 1.3 3 1.2 3 1.3 3 1.3 3 1.3 3 1.3 3 1.2 3 1.2 3 1.1 3 1 3 1 3 1 3 .7 3 .7 3 .5 3 .4 3 .3h6l3-.1 3-.3 3-.5 3-.5 3-.7 3-.8 3-1 3-.9 3-1 3-1.2 3-1.1 3-1.2 3-1.2 3-1.2 3-1.1 3-1.1 3-1.1 3-1 3-1 3-.8 3-.7 3-.6 3-.5 3-.3 3-.2h6l3 .2 3 .4 3 .6 3 .7 3 .8 3 1 3 1.2 3 1.2 3 1.4 3 1.6 3 1.6 3 1.8 3 1.8 3 2 3 2 3 2 3 2.2 3 2.2 3 2.2 3 2.2 3 2.2 3 2.2 3 2.1 3 2.2 3 2 3 2 3 2 3 1.8 3 1.7 3 1.6 3 1.5 3 1.3 3 1.2 3 1 3 1 3 .6 3 .4 3 .2h3l3-.2 3-.5 3-.7 3-1 3-1.2 3-1.4 3-1.7 3-1.9 3-2 3-2.3 3-2.5 3-2.6 3-2.7 3-2.8 3-3 3-3 3-3 3-3 3-3 3-3 3-3 3-2.8 3-2.7 3-2.6 3-2.4 3-2.3 3-2.1 3-2 3-1.7 3-1.4 3-1.3 3-1 3-.9 3-.6 3-.4 3-.1h3l3 .3 3 .4 3 .6 3 .8 3 .9 3 1 3 1.2 3 1.3 3 1.5 3 1.5 3 1.6 3 1.7 3 1.8 3 1.9 3 1.9 3 1.9 3 2 3 2 3 1.9 3 2 3 1.8 3 1.9 3 1.8 3 1.7 3 1.7 3 1.5 3 1.5 3 1.3 3 1.2 3 1 3 1 3 .8 3 .7 3 .4 3 .4 3 .2h3l3-.1 3-.3 3-.4 3-.6 3-.7 3-.9 3-1 3-1 3-1.2 3-1.3 3-1.3 3-1.5 3-1.5 3-1.5 3-1.5 3-1.6 3-1.6 3-1.6 3-1.5 3-1.5 3-1.5 3-1.4 3-1.4 3-1.3 3-1.2 3-1 3-1.1 3-1 3-.8 3-.7 3-.7 3-.5 3-.5 3-.4"/>
    <path d="M50 469.6l3 .3 3 .3 3 .5 3 .5 3 .6 3 .7 3 .7 3 .7 3 .7 3 .7 3 .7 3 .6 3 .6 3 .6 3 .5 3 .4 3 .4 3 .2 3 .2 3 .2h6l3-.2 3-.1 3-.3 3-.3 3-.4 3-.4 3-.4 3-.5 3-.5 3-.4 3-.5 3-.4 3-.4 3-.3 3-.2 3-.2h6l3 .2 3 .3 3 .4 3 .5 3 .7 3 .7 3 .8 3 1 3 .9 3 1 3 1 3 1 3 1 3 1 3 .8 3 .9 3 .7 3 .7 3 .5 3 .5 3 .3 3 .2 3 .1h3l3-.2 3-.3 3-.4 3-.5 3-.6 3-.8 3-.8 3-.8 3-1 3-1 3-1 3-1 3-1 3-1.1 3-1 3-1 3-1 3-.8 3-.7 3-.7 3-.6 3-.5 3-.4 3-.2 3-.1h3l3 .1 3 .3 3 .4 3 .5 3 .7 3 .8 3 1 3 1 3 1 3 1.3 3 1.3 3 1.3 3 1.5 3 1.5 3 1.5 3 1.6 3 1.6 3 1.6 3 1.6 3 1.6 3 1.5 3 1.6 3 1.5 3 1.4 3 1.4 3 1.3 3 1.1 3 1 3 1 3 .8 3 .6 3 .4 3 .3 3 .1h3l3-.2 3-.4 3-.5 3-.7 3-.8 3-1 3-1 3-1.3 3-1.2 3-1.4 3-1.4 3-1.4 3-1.5 3-1.4 3-1.5 3-1.4 3-1.3 3-1.3 3-1.2 3-1 3-1 3-.8 3-.7 3-.6 3-.3 3-.3h3l3 .1 3 .4 3 .5 3 .6 3 .8 3 1 3 1.2 3 1.3 3 1.4 3 1.6 3 1.7 3 1.8 3 1.9 3 2 3 2 3 2.1 3 2.2 3 2.2 3 2.3 3 2.3 3 2.2 3 2.2 3 2.3 3 2.1 3 2.1 3 2 3 2 3 2 3 1.7 3 1.6 3 1.6 3 1.4 3 1.2 3 1 3 1 3 .7 3 .5 3 .4h3l3-.1 3-.4 3-.6 3-.9 3-1 3-1.4 3-1.6 3-1.8 3-2 3-2.2 3-2.4 3-2.5 3-2.7 3-2.8 3-3 3-3 3-3 3-3 3-3 3-3.1 3-3 3-2.9 3-2.8 3-2.7 3-2.6 3-2.4 3-2.2 3-2 3-1.9 3-1.6 3-1.5 3-1.2 3-1 3-.8 3-.5 3-.4 3-.1h3l3 .3 3 .4 3 .5 3 .7 3 .9 3 1 3 1 3 1.3 3 1.3 3 1.5 3 1.5 3 1.5 3 1.7 3 1.7 3 1.7 3 1.8 3 1.8 3 1.8 3 1.7 3 1.8 3 1.7 3 1.6 3 1.6 3 1.5 3 1.4 3 1.3 3 1.2 3 1 3 1 3 .8 3 .7 3 .6 3 .4 3 .3h9l3-.3 3-.4 3-.5 3-.7 3-.7 3-.9 3-1 3-1 3-1.1 3-1.2 3-1.3 3-1.3 3-1.3 3-1.4 3-1.3 3-1.4 3-1.3 3-1.3 3-1.3 3-1.3 3-1.2 3-1 3-1.1 3-1 3-1 3-.7 3-.7 3-.7 3-.5 3-.5 3-.4 3-.3 3-.2"/>
    <path d="M50 492l3 .3 3 .4 3 .5 3 .6 3 .6 3 .7 3 .8 3 .7 3 .8 3 .8 3 .7 3 .7 3 .7 3 .6 3 .6 3 .5 3 .4 3 .4 3 .3 3 .2h12l3-.3 3-.3 3-.3 3-.3 3-.4 3-.5 3-.4 3-.4 3-.4 3-.4 3-.4 3-.2 3-.2 3-.1h6l3 .2 3 .3 3 .4 3 .5 3 .7 3 .7 3 .7 3 .8 3 .9 3 .9 3 .8 3 .9 3 .8 3 .8 3 .7 3 .6 3 .6 3 .4 3 .4 3 .2 3 .1h3l3-.1 3-.3 3-.3 3-.5 3-.6 3-.7 3-.8 3-.9 3-1 3-.9 3-1 3-1.1 3-1 3-1.2 3-1 3-1 3-1 3-1 3-.8 3-.8 3-.7 3-.5 3-.4 3-.4 3-.1h6l3 .3 3 .4 3 .5 3 .7 3 .8 3 1 3 1 3 1.3 3 1.3 3 1.4 3 1.5 3 1.6 3 1.7 3 1.7 3 1.8 3 1.8 3 1.8 3 1.9 3 1.8 3 1.8 3 1.9 3 1.7 3 1.8 3 1.7 3 1.6 3 1.5 3 1.4 3 1.3 3 1.1 3 1 3 .8 3 .7 3 .4 3 .3h6l3-.3 3-.5 3-.6 3-.9 3-1 3-1 3-1.3 3-1.4 3-1.5 3-1.6 3-1.6 3-1.7 3-1.6 3-1.7 3-1.7 3-1.6 3-1.6 3-1.5 3-1.4 3-1.3 3-1.1 3-1 3-.9 3-.7 3-.5 3-.3 3-.1h3l3 .3 3 .4 3 .6 3 .8 3 1 3 1.1 3 1.3 3 1.4 3 1.6 3 1.6 3 1.8 3 2 3 1.9 3 2 3 2.2 3 2.1 3 2.2 3 2.3 3 2.2 3 2.3 3 2.2 3 2.2 3 2.1 3 2.1 3 2 3 2 3 1.9 3 1.7 3 1.7 3 1.5 3 1.4 3 1.2 3 1.1 3 1 3 .7 3 .6 3 .3 3 .2 3-.1 3-.3 3-.6 3-.8 3-1 3-1.3 3-1.4 3-1.8 3-1.9 3-2.1 3-2.3 3-2.5 3-2.6 3-2.7 3-2.9 3-2.9 3-3 3-3 3-3 3-3 3-3 3-2.8 3-2.8 3-2.7 3-2.5 3-2.4 3-2.3 3-2 3-2 3-1.6 3-1.5 3-1.3 3-1 3-.9 3-.7 3-.4 3-.3h6l3 .3 3 .5 3 .5 3 .7 3 .8 3 1 3 1 3 1.2 3 1.2 3 1.4 3 1.4 3 1.4 3 1.5 3 1.6 3 1.6 3 1.5 3 1.6 3 1.6 3 1.5 3 1.5 3 1.4 3 1.4 3 1.2 3 1.2 3 1.1 3 1 3 1 3 .7 3 .7 3 .5 3 .4 3 .3 3 .2h6l3-.3 3-.3 3-.4 3-.5 3-.6 3-.7 3-.8 3-1 3-.9 3-1 3-1 3-1.1 3-1.1 3-1.2 3-1.2 3-1.1 3-1.2 3-1 3-1.2 3-1 3-1 3-1 3-.9 3-.8 3-.8 3-.6 3-.6 3-.6 3-.4 3-.3 3-.3 3-.2 3-.1h3"/>
    <path d="M50 516l3 .3 3 .4 3 .4 3 .6 3 .6 3 .6 3 .7 3 .7 3 .7 3 .7 3 .7 3 .7 3 .7 3 .6 3 .5 3 .5 3 .4 3 .4 3 .3 3 .2h3l3 .1h3l3-.1 3-.2 3-.2 3-.3 3-.3 3-.4 3-.3 3-.4 3-.4 3-.3 3-.3 3-.3 3-.2 3-.1h6l3 .1 3 .2 3 .4 3 .4 3 .6 3 .6 3 .7 3 .7 3 .8 3 .7 3 .8 3 .8 3 .7 3 .7 3 .6 3 .6 3 .5 3 .3 3 .3 3 .2h6l3-.2 3-.3 3-.4 3-.5 3-.6 3-.7 3-.8 3-.8 3-1 3-1 3-1 3-1 3-1 3-1.1 3-1 3-1 3-1 3-1 3-.8 3-.7 3-.6 3-.5 3-.4 3-.3h6l3 .2 3 .3 3 .5 3 .6 3 .8 3 1 3 1 3 1.3 3 1.3 3 1.5 3 1.5 3 1.7 3 1.7 3 1.9 3 1.9 3 2 3 1.9 3 2 3 2 3 2 3 2 3 2 3 2 3 2 3 1.8 3 1.8 3 1.6 3 1.6 3 1.5 3 1.3 3 1.1 3 1 3 .8 3 .6 3 .5 3 .2h3l3-.2 3-.4 3-.6 3-.7 3-1 3-1.1 3-1.3 3-1.4 3-1.6 3-1.7 3-1.7 3-1.8 3-1.9 3-1.8 3-2 3-1.8 3-1.8 3-1.7 3-1.7 3-1.6 3-1.4 3-1.3 3-1.2 3-1 3-.8 3-.6 3-.4 3-.3h3l3 .2 3 .3 3 .5 3 .8 3 .9 3 1 3 1.3 3 1.3 3 1.5 3 1.6 3 1.8 3 1.8 3 1.9 3 2 3 2 3 2.1 3 2.1 3 2.2 3 2.2 3 2.1 3 2.2 3 2.1 3 2 3 2.1 3 2 3 1.9 3 1.8 3 1.7 3 1.5 3 1.5 3 1.3 3 1.2 3 1 3 .9 3 .7 3 .5 3 .3 3 .1h3l3-.4 3-.6 3-.7 3-1 3-1.3 3-1.4 3-1.7 3-1.8 3-2 3-2.3 3-2.4 3-2.5 3-2.6 3-2.7 3-2.8 3-2.8 3-2.9 3-2.9 3-2.8 3-2.8 3-2.8 3-2.6 3-2.6 3-2.4 3-2.3 3-2.1 3-2 3-1.8 3-1.6 3-1.4 3-1.2 3-1 3-.9 3-.6 3-.5 3-.2 3-.1h3l3 .3 3 .3 3 .5 3 .6 3 .7 3 .9 3 1 3 1 3 1 3 1.2 3 1.3 3 1.3 3 1.3 3 1.4 3 1.3 3 1.4 3 1.4 3 1.3 3 1.3 3 1.3 3 1.2 3 1.1 3 1 3 1 3 1 3 .7 3 .7 3 .6 3 .4 3 .4 3 .3 3 .1h6l3-.2 3-.3 3-.4 3-.5 3-.5 3-.7 3-.7 3-.7 3-.8 3-1 3-.8 3-1 3-1 3-1 3-1 3-1 3-.9 3-1 3-.9 3-.9 3-.8 3-.8 3-.8 3-.7 3-.6 3-.5 3-.5 3-.4 3-.3 3-.3 3-.2h12"/>
    <path d="M50 541.6l3 .3 3 .3 3 .4 3 .4 3 .4 3 .5 3 .6 3 .5 3 .6 3 .6 3 .5 3 .6 3 .5 3 .5 3 .4 3 .4 3 .4 3 .2 3 .2 3 .2h9l3-.1 3-.2 3-.2 3-.3 3-.2 3-.4 3-.3 3-.3 3-.3 3-.3 3-.2 3-.2h3l3-.1h3l3 .2 3 .2 3 .3 3 .4 3 .5 3 .6 3 .6 3 .7 3 .7 3 .7 3 .7 3 .7 3 .7 3 .6 3 .6 3 .5 3 .5 3 .3 3 .3 3 .1 3 .1h3l3-.2 3-.3 3-.4 3-.4 3-.6 3-.7 3-.7 3-.8 3-.9 3-.9 3-1 3-1 3-.9 3-1 3-1 3-.9 3-.8 3-.9 3-.7 3-.6 3-.6 3-.4 3-.3 3-.2h6l3 .3 3 .4 3 .6 3 .8 3 .9 3 1 3 1.2 3 1.3 3 1.4 3 1.6 3 1.7 3 1.8 3 1.9 3 1.9 3 2 3 2 3 2.2 3 2.1 3 2.2 3 2.1 3 2.1 3 2.1 3 2.1 3 2 3 2 3 1.9 3 1.7 3 1.7 3 1.6 3 1.4 3 1.3 3 1.1 3 1 3 .7 3 .5 3 .4 3 .1h3l3-.4 3-.5 3-.7 3-.9 3-1 3-1.3 3-1.5 3-1.5 3-1.7 3-1.8 3-2 3-1.9 3-2 3-2 3-2 3-2 3-2 3-2 3-1.7 3-1.7 3-1.6 3-1.4 3-1.3 3-1.1 3-1 3-.7 3-.6 3-.3 3-.2h3l3 .3 3 .4 3 .7 3 .8 3 1 3 1 3 1.3 3 1.4 3 1.5 3 1.6 3 1.7 3 1.8 3 1.9 3 1.9 3 2 3 2 3 2 3 2 3 2 3 2 3 2 3 2 3 2 3 1.8 3 1.7 3 1.7 3 1.6 3 1.4 3 1.3 3 1.2 3 1 3 .9 3 .7 3 .5 3 .3 3 .2h3l3-.3 3-.4 3-.7 3-.8 3-1 3-1.3 3-1.5 3-1.6 3-1.8 3-2 3-2.1 3-2.3 3-2.3 3-2.5 3-2.5 3-2.6 3-2.7 3-2.6 3-2.7 3-2.6 3-2.5 3-2.5 3-2.5 3-2.3 3-2.1 3-2 3-2 3-1.7 3-1.6 3-1.4 3-1.2 3-1 3-.9 3-.6 3-.5 3-.4 3-.2h3l3 .2 3 .2 3 .4 3 .5 3 .6 3 .7 3 .8 3 .8 3 1 3 1 3 1.1 3 1.1 3 1.2 3 1.2 3 1.2 3 1.2 3 1.2 3 1.1 3 1.2 3 1 3 1.1 3 1 3 .9 3 .8 3 .8 3 .7 3 .5 3 .5 3 .4 3 .3 3 .2h9l3-.2 3-.3 3-.4 3-.4 3-.5 3-.6 3-.7 3-.7 3-.7 3-.8 3-.9 3-.8 3-.9 3-.9 3-.8 3-1 3-.8 3-.8 3-.8 3-.8 3-.7 3-.7 3-.6 3-.6 3-.5 3-.4 3-.4 3-.3 3-.3 3-.2h3l3-.1h3l3 .1 3 .2 3 .2"/>
    <path d="M50 568.6l3 .2 3 .3 3 .2 3 .3 3 .3 3 .3 3 .4 3 .3 3 .4 3 .4 3 .3 3 .3 3 .4 3 .2 3 .3 3 .2 3 .2 3 .1h3l3 .1h6l3-.2 3-.2 3-.2 3-.2 3-.3 3-.2 3-.3 3-.3 3-.2 3-.3 3-.1 3-.2h9l3 .2 3 .2 3 .3 3 .4 3 .5 3 .5 3 .6 3 .6 3 .7 3 .6 3 .7 3 .7 3 .7 3 .6 3 .5 3 .5 3 .5 3 .3 3 .3 3 .2h6l3-.1 3-.2 3-.3 3-.4 3-.5 3-.6 3-.6 3-.7 3-.8 3-.8 3-.8 3-.9 3-.9 3-.8 3-.9 3-.8 3-.7 3-.7 3-.6 3-.6 3-.4 3-.3 3-.2h6l3 .2 3 .3 3 .5 3 .7 3 .8 3 1 3 1.1 3 1.3 3 1.4 3 1.5 3 1.7 3 1.8 3 1.8 3 2 3 2 3 2.1 3 2.2 3 2.2 3 2.2 3 2.2 3 2.2 3 2.2 3 2.2 3 2.1 3 2.1 3 2 3 2 3 1.8 3 1.7 3 1.6 3 1.5 3 1.4 3 1.1 3 1 3 .9 3 .6 3 .5 3 .2h3l3-.2 3-.4 3-.6 3-.9 3-1 3-1.2 3-1.4 3-1.6 3-1.6 3-1.9 3-1.9 3-2 3-2 3-2.2 3-2.1 3-2.2 3-2.1 3-2 3-2 3-2 3-1.8 3-1.7 3-1.5 3-1.4 3-1.3 3-1 3-.9 3-.6 3-.5 3-.3h3l3 .1 3 .3 3 .5 3 .7 3 .8 3 1 3 1 3 1.3 3 1.4 3 1.4 3 1.6 3 1.6 3 1.6 3 1.8 3 1.8 3 1.8 3 1.8 3 1.9 3 1.8 3 1.9 3 1.8 3 1.7 3 1.8 3 1.6 3 1.6 3 1.4 3 1.4 3 1.2 3 1 3 1 3 .7 3 .6 3 .4 3 .3h6l3-.3 3-.5 3-.6 3-.9 3-1 3-1.1 3-1.4 3-1.5 3-1.6 3-1.8 3-1.9 3-2 3-2.1 3-2.2 3-2.3 3-2.3 3-2.4 3-2.4 3-2.3 3-2.4 3-2.2 3-2.3 3-2.1 3-2 3-2 3-1.8 3-1.7 3-1.5 3-1.4 3-1.2 3-1.1 3-1 3-.6 3-.6 3-.4 3-.3 3-.1h3l3 .2 3 .2 3 .4 3 .5 3 .6 3 .6 3 .8 3 .8 3 .9 3 1 3 .9 3 1 3 1 3 1.2 3 1 3 1.1 3 1 3 1.1 3 1 3 1 3 .9 3 .8 3 .8 3 .7 3 .7 3 .5 3 .5 3 .4 3 .3 3 .2 3 .1h9l3-.3 3-.3 3-.3 3-.5 3-.5 3-.5 3-.6 3-.7 3-.7 3-.7 3-.8 3-.8 3-.8 3-.8 3-.8 3-.8 3-.7 3-.8 3-.7 3-.7 3-.6 3-.6 3-.6 3-.5 3-.4 3-.4 3-.4 3-.2 3-.2 3-.2h9l3 .1 3 .2 3 .2 3 .3"/>
    <path d="M50 596.8h3l3 .2 3 .1 3 .2 3 .1 3 .2 3 .2 3 .1 3 .2h3l3 .2 3 .1 3 .1h15l3-.1 3-.2 3-.1 3-.2 3-.2 3-.3 3-.2 3-.3 3-.3 3-.2 3-.3 3-.2 3-.2 3-.1 3-.1h9l3 .2 3 .2 3 .3 3 .4 3 .4 3 .5 3 .6 3 .5 3 .7 3 .6 3 .7 3 .6 3 .6 3 .6 3 .6 3 .5 3 .4 3 .4 3 .3 3 .2 3 .1h6l3-.1 3-.3 3-.3 3-.4 3-.4 3-.6 3-.6 3-.6 3-.7 3-.6 3-.8 3-.7 3-.7 3-.7 3-.6 3-.6 3-.5 3-.5 3-.4 3-.3 3-.2h6l3 .2 3 .3 3 .5 3 .6 3 .7 3 1 3 1 3 1.2 3 1.3 3 1.5 3 1.6 3 1.7 3 1.8 3 2 3 2 3 2 3 2.2 3 2.2 3 2.2 3 2.3 3 2.2 3 2.3 3 2.2 3 2.2 3 2.2 3 2 3 2 3 2 3 1.8 3 1.8 3 1.6 3 1.5 3 1.3 3 1.3 3 1 3 .9 3 .6 3 .5 3 .3 3 .1 3-.1 3-.4 3-.5 3-.7 3-1 3-1.1 3-1.4 3-1.4 3-1.7 3-1.8 3-1.9 3-2 3-2 3-2.2 3-2.2 3-2.2 3-2.2 3-2.1 3-2.1 3-2 3-2 3-2 3-1.6 3-1.6 3-1.5 3-1.3 3-1 3-1 3-.7 3-.6 3-.3 3-.2h3l3 .2 3 .4 3 .5 3 .7 3 .8 3 1 3 1 3 1.1 3 1.2 3 1.3 3 1.4 3 1.5 3 1.4 3 1.6 3 1.5 3 1.6 3 1.6 3 1.6 3 1.5 3 1.6 3 1.5 3 1.4 3 1.3 3 1.3 3 1.1 3 1 3 1 3 .7 3 .6 3 .4 3 .2 3 .1h3l3-.4 3-.4 3-.6 3-.8 3-.9 3-1 3-1.2 3-1.4 3-1.4 3-1.6 3-1.7 3-1.8 3-1.8 3-2 3-2 3-2 3-2 3-2.1 3-2 3-2.1 3-2 3-2 3-1.9 3-1.8 3-1.7 3-1.6 3-1.5 3-1.3 3-1.3 3-1 3-1 3-.8 3-.6 3-.5 3-.4 3-.2h6l3 .2 3 .3 3 .4 3 .5 3 .6 3 .7 3 .7 3 .8 3 .8 3 1 3 .9 3 1 3 1 3 1 3 1 3 1 3 1 3 1 3 1 3 .9 3 .9 3 .8 3 .7 3 .7 3 .7 3 .5 3 .5 3 .4 3 .3 3 .2 3 .2h9l3-.2 3-.2 3-.3 3-.3 3-.5 3-.4 3-.5 3-.6 3-.6 3-.6 3-.7 3-.7 3-.7 3-.7 3-.7 3-.7 3-.7 3-.7 3-.7 3-.6 3-.7 3-.6 3-.5 3-.5 3-.5 3-.4 3-.3 3-.3 3-.3 3-.2 3-.1h3l3-.1h3l3 .1 3 .2 3 .2 3 .2 3 .3"/>
    <path d="M50 625.7h27l3-.1h3l3-.2 3-.1 3-.2 3-.1 3-.2 3-.3 3-.2 3-.3 3-.3 3-.3 3-.3 3-.3 3-.3 3-.3 3-.4 3-.2 3-.3 3-.2 3-.2 3-.1 3-.1h9l3 .2 3 .2 3 .3 3 .3 3 .4 3 .4 3 .5 3 .6 3 .5 3 .6 3 .6 3 .6 3 .6 3 .6 3 .5 3 .5 3 .4 3 .4 3 .3 3 .3 3 .1 3 .1h6l3-.2 3-.2 3-.3 3-.4 3-.4 3-.4 3-.5 3-.5 3-.6 3-.5 3-.6 3-.5 3-.6 3-.4 3-.5 3-.4 3-.3 3-.2 3-.1h6l3 .2 3 .3 3 .4 3 .6 3 .7 3 .8 3 1 3 1.1 3 1.3 3 1.3 3 1.6 3 1.6 3 1.7 3 1.9 3 2 3 2 3 2 3 2.2 3 2.2 3 2.2 3 2.3 3 2.2 3 2.3 3 2.2 3 2.2 3 2.1 3 2 3 2 3 2 3 1.8 3 1.7 3 1.6 3 1.4 3 1.3 3 1.2 3 1 3 .9 3 .6 3 .5 3 .4h6l3-.3 3-.5 3-.6 3-.9 3-1 3-1.3 3-1.3 3-1.6 3-1.7 3-1.8 3-1.9 3-2 3-2 3-2.2 3-2.2 3-2.1 3-2.2 3-2 3-2.2 3-2 3-1.9 3-1.8 3-1.7 3-1.5 3-1.5 3-1.2 3-1.1 3-1 3-.7 3-.6 3-.4 3-.2h6l3 .3 3 .4 3 .5 3 .7 3 .7 3 .8 3 1 3 1 3 1 3 1 3 1.2 3 1.2 3 1.2 3 1.2 3 1.2 3 1.3 3 1.2 3 1.2 3 1.1 3 1.1 3 1 3 1 3 .8 3 .7 3 .6 3 .4 3 .3 3 .2h3l3-.2 3-.3 3-.5 3-.6 3-.8 3-1 3-1 3-1.2 3-1.3 3-1.5 3-1.5 3-1.6 3-1.7 3-1.7 3-1.8 3-1.8 3-1.9 3-1.8 3-1.9 3-1.8 3-1.8 3-1.7 3-1.7 3-1.7 3-1.5 3-1.5 3-1.3 3-1.2 3-1.2 3-1 3-.8 3-.7 3-.6 3-.4 3-.3 3-.1h6l3 .3 3 .3 3 .5 3 .5 3 .6 3 .7 3 .8 3 .8 3 1 3 .9 3 1 3 1 3 1 3 1 3 1 3 1.1 3 1 3 1.1 3 1 3 1 3 1 3 .8 3 .9 3 .7 3 .8 3 .6 3 .6 3 .5 3 .4 3 .4 3 .2 3 .2 3 .1h9l3-.2 3-.3 3-.2 3-.4 3-.4 3-.4 3-.5 3-.5 3-.5 3-.6 3-.5 3-.6 3-.6 3-.6 3-.6 3-.6 3-.6 3-.6 3-.6 3-.5 3-.6 3-.5 3-.5 3-.4 3-.4 3-.4 3-.3 3-.3 3-.2 3-.2 3-.2h3l3-.1h6l3 .1 3 .1 3 .2 3 .2 3 .3"/>
    <path d="M50 654.9l3-.1h3l3-.2h3l3-.2 3-.2 3-.1 3-.2 3-.2 3-.2 3-.2 3-.2 3-.3 3-.3 3-.3 3-.3 3-.3 3-.4 3-.3 3-.4 3-.4 3-.4 3-.4 3-.3 3-.3 3-.4 3-.2 3-.3 3-.2 3-.1 3-.1h9l3 .1 3 .2 3 .2 3 .2 3 .3 3 .4 3 .3 3 .5 3 .4 3 .5 3 .6 3 .5 3 .5 3 .5 3 .5 3 .4 3 .4 3 .4 3 .3 3 .3 3 .1 3 .2h9l3-.2 3-.2 3-.3 3-.3 3-.3 3-.4 3-.4 3-.4 3-.4 3-.5 3-.4 3-.3 3-.4 3-.3 3-.2 3-.1 3-.1h6l3 .2 3 .3 3 .5 3 .5 3 .6 3 .8 3 1 3 1 3 1 3 1.4 3 1.4 3 1.5 3 1.6 3 1.8 3 1.8 3 2 3 2 3 2 3 2.1 3 2.2 3 2.1 3 2.3 3 2.2 3 2.1 3 2.2 3 2.1 3 2.1 3 2 3 2 3 1.8 3 1.8 3 1.6 3 1.5 3 1.4 3 1.2 3 1.1 3 1 3 .8 3 .6 3 .4 3 .3 3 .2 3-.1 3-.2 3-.5 3-.6 3-.7 3-1 3-1 3-1.4 3-1.4 3-1.5 3-1.7 3-1.7 3-1.9 3-2 3-1.9 3-2 3-2 3-2 3-2.1 3-2 3-1.9 3-1.9 3-1.7 3-1.7 3-1.5 3-1.4 3-1.3 3-1.2 3-1 3-.8 3-.7 3-.5 3-.4 3-.2 3-.1h3l3 .2 3 .3 3 .4 3 .5 3 .5 3 .7 3 .6 3 .8 3 .7 3 .8 3 .8 3 .8 3 .9 3 .8 3 .9 3 .8 3 .8 3 .7 3 .6 3 .6 3 .5 3 .4 3 .3 3 .2h6l3-.3 3-.4 3-.5 3-.6 3-.8 3-.9 3-1 3-1.2 3-1.2 3-1.4 3-1.5 3-1.5 3-1.7 3-1.7 3-1.7 3-1.8 3-1.8 3-1.8 3-1.7 3-1.8 3-1.7 3-1.7 3-1.6 3-1.5 3-1.4 3-1.4 3-1.2 3-1.1 3-1 3-.9 3-.7 3-.6 3-.5 3-.3 3-.2h6l3 .3 3 .4 3 .4 3 .6 3 .7 3 .8 3 .8 3 1 3 1 3 1 3 1 3 1.1 3 1.2 3 1.2 3 1.1 3 1.2 3 1.2 3 1.2 3 1.2 3 1.1 3 1.1 3 1 3 1.1 3 1 3 .9 3 .8 3 .8 3 .7 3 .7 3 .5 3 .5 3 .4 3 .3 3 .3 3 .2h12l3-.2 3-.3 3-.2 3-.3 3-.4 3-.4 3-.4 3-.5 3-.4 3-.5 3-.5 3-.5 3-.4 3-.5 3-.5 3-.5 3-.4 3-.5 3-.4 3-.4 3-.4 3-.4 3-.4 3-.3 3-.3 3-.3 3-.3 3-.2 3-.2 3-.2 3-.1 3-.1h3l3-.1h9l3 .2h3l3 .2 3 .2"/>
    <path d="M50 684h3l3-.3 3-.2 3-.2 3-.2 3-.2 3-.3 3-.2 3-.3 3-.3 3-.3 3-.3 3-.3 3-.3 3-.4 3-.3 3-.4 3-.3 3-.4 3-.4 3-.3 3-.4 3-.3 3-.3 3-.3 3-.3 3-.2 3-.2 3-.1 3-.2h15l3 .2 3 .2 3 .1 3 .3 3 .2 3 .4 3 .3 3 .3 3 .4 3 .4 3 .4 3 .4 3 .4 3 .4 3 .3 3 .3 3 .3 3 .2 3 .1 3 .2h9l3-.2 3-.1 3-.2 3-.2 3-.3 3-.3 3-.3 3-.3 3-.4 3-.3 3-.3 3-.3 3-.2 3-.2 3-.1h9l3 .2 3 .3 3 .3 3 .5 3 .6 3 .7 3 .8 3 1 3 1 3 1.1 3 1.3 3 1.4 3 1.5 3 1.6 3 1.7 3 1.8 3 1.8 3 2 3 2 3 2 3 2.1 3 2.1 3 2.1 3 2.1 3 2.1 3 2.1 3 2 3 2 3 2 3 1.8 3 1.7 3 1.7 3 1.5 3 1.4 3 1.3 3 1.2 3 1 3 .8 3 .7 3 .6 3 .4 3 .2 3 .1h3l3-.3 3-.4 3-.6 3-.7 3-.8 3-1 3-1.2 3-1.2 3-1.4 3-1.5 3-1.5 3-1.7 3-1.7 3-1.8 3-1.8 3-1.8 3-1.8 3-1.8 3-1.8 3-1.7 3-1.7 3-1.6 3-1.5 3-1.4 3-1.3 3-1.2 3-1 3-1 3-.8 3-.6 3-.6 3-.3 3-.3 3-.2h6l3 .2 3 .3 3 .3 3 .3 3 .4 3 .5 3 .4 3 .5 3 .5 3 .5 3 .5 3 .5 3 .4 3 .5 3 .4 3 .3 3 .3 3 .2 3 .1h6l3-.2 3-.4 3-.4 3-.6 3-.6 3-.8 3-1 3-1 3-1.2 3-1.2 3-1.4 3-1.4 3-1.6 3-1.6 3-1.7 3-1.7 3-1.7 3-1.8 3-1.9 3-1.8 3-1.8 3-1.8 3-1.8 3-1.7 3-1.6 3-1.6 3-1.5 3-1.3 3-1.3 3-1.1 3-1 3-.9 3-.7 3-.5 3-.5 3-.2 3-.1h3l3 .2 3 .3 3 .5 3 .6 3 .7 3 .8 3 1 3 1 3 1.1 3 1.2 3 1.2 3 1.3 3 1.3 3 1.4 3 1.4 3 1.4 3 1.4 3 1.4 3 1.4 3 1.4 3 1.3 3 1.3 3 1.3 3 1.2 3 1.2 3 1.1 3 1 3 1 3 1 3 .8 3 .7 3 .7 3 .6 3 .5 3 .4 3 .3 3 .2 3 .2 3 .1h6l3-.1 3-.2 3-.2 3-.2 3-.3 3-.3 3-.4 3-.4 3-.3 3-.4 3-.4 3-.4 3-.4 3-.3 3-.4 3-.3 3-.4 3-.3 3-.3 3-.2 3-.3 3-.2 3-.2 3-.2 3-.2 3-.2 3-.2 3-.2 3-.1 3-.1 3-.1 3-.1 3-.1h6l3-.1h12l3 .2h3l3 .1"/>
    <path d="M50 713l3-.3 3-.2 3-.3 3-.2 3-.3 3-.3 3-.3 3-.3 3-.3 3-.3 3-.3 3-.3 3-.3 3-.3 3-.3 3-.3 3-.2 3-.3 3-.3 3-.2 3-.3 3-.2 3-.2 3-.2 3-.2 3-.2 3-.1 3-.1 3-.1h3l3-.1h12l3 .1 3 .1 3 .1 3 .2 3 .1 3 .2 3 .2 3 .2 3 .3 3 .2 3 .3 3 .2 3 .2 3 .3 3 .2 3 .1 3 .1 3 .1h12l3-.2 3-.1 3-.2 3-.3 3-.2 3-.3 3-.3 3-.3 3-.3 3-.2 3-.3 3-.2 3-.2 3-.1 3-.1h6l3 .2 3 .2 3 .3 3 .4 3 .5 3 .6 3 .7 3 .8 3 .9 3 1 3 1.1 3 1.3 3 1.3 3 1.4 3 1.6 3 1.6 3 1.6 3 1.8 3 1.8 3 1.9 3 2 3 1.9 3 2 3 2 3 1.9 3 2 3 1.9 3 1.9 3 1.8 3 1.8 3 1.7 3 1.7 3 1.5 3 1.4 3 1.3 3 1.2 3 1 3 1 3 .7 3 .6 3 .5 3 .3 3 .1h3l3-.1 3-.3 3-.4 3-.5 3-.7 3-.8 3-.9 3-1 3-1.1 3-1.3 3-1.3 3-1.3 3-1.5 3-1.4 3-1.6 3-1.5 3-1.5 3-1.6 3-1.5 3-1.5 3-1.4 3-1.4 3-1.3 3-1.3 3-1.1 3-1 3-1 3-.9 3-.7 3-.6 3-.5 3-.4 3-.3 3-.1 3-.1h3l3 .1 3 .2 3 .2 3 .2 3 .3 3 .3 3 .3 3 .3 3 .3 3 .3 3 .2 3 .3 3 .2 3 .1 3 .1h9l3-.3 3-.3 3-.5 3-.5 3-.7 3-.8 3-.9 3-1 3-1.2 3-1.2 3-1.4 3-1.5 3-1.6 3-1.7 3-1.7 3-1.9 3-1.8 3-2 3-1.9 3-2 3-2 3-1.9 3-2 3-1.8 3-2 3-1.7 3-1.8 3-1.6 3-1.6 3-1.5 3-1.4 3-1.2 3-1.2 3-1 3-.8 3-.7 3-.5 3-.3 3-.2h3l3 .2 3 .3 3 .4 3 .7 3 .7 3 1 3 1 3 1.1 3 1.3 3 1.3 3 1.4 3 1.5 3 1.5 3 1.6 3 1.6 3 1.7 3 1.6 3 1.7 3 1.6 3 1.7 3 1.6 3 1.6 3 1.5 3 1.5 3 1.4 3 1.4 3 1.3 3 1.2 3 1.2 3 1 3 1 3 1 3 .7 3 .7 3 .6 3 .6 3 .4 3 .3 3 .3 3 .2h3l3 .1h3l3-.1 3-.2 3-.2 3-.2 3-.3 3-.3 3-.3 3-.3 3-.3 3-.3 3-.4 3-.3 3-.2 3-.3 3-.2 3-.3 3-.1 3-.2 3-.1 3-.1 3-.1h3l3-.1h9l3-.1h51"/>
    <path d="M50 741.3l3-.3 3-.2 3-.3 3-.3 3-.3 3-.3 3-.3 3-.2 3-.3 3-.2 3-.3 3-.2 3-.2 3-.1 3-.2 3-.1 3-.2h3l3-.2h3l3-.1 3-.1h3l3-.1 3-.1h6l3-.1h9l3-.1h15l3 .1h3l3 .1h3l3 .1 3 .1h3l3 .2h3l3 .1h6l3 .1h6l3-.1 3-.1 3-.1 3-.2 3-.2 3-.2 3-.3 3-.3 3-.2 3-.3 3-.3 3-.3 3-.3 3-.3 3-.2 3-.3 3-.1 3-.2h9l3 .2 3 .2 3 .3 3 .4 3 .5 3 .5 3 .7 3 .8 3 .9 3 1 3 1 3 1.1 3 1.3 3 1.3 3 1.4 3 1.5 3 1.5 3 1.6 3 1.7 3 1.7 3 1.7 3 1.8 3 1.8 3 1.8 3 1.7 3 1.8 3 1.7 3 1.7 3 1.7 3 1.6 3 1.5 3 1.4 3 1.4 3 1.2 3 1.2 3 1 3 .9 3 .7 3 .7 3 .5 3 .3 3 .2 3 .1h3l3-.2 3-.4 3-.4 3-.6 3-.7 3-.7 3-.9 3-1 3-1 3-1 3-1.2 3-1.2 3-1.2 3-1.2 3-1.3 3-1.3 3-1.2 3-1.2 3-1.2 3-1.2 3-1.1 3-1 3-1 3-.9 3-.8 3-.7 3-.6 3-.5 3-.4 3-.4 3-.2h3l3-.1h3l3 .2 3 .1 3 .3 3 .3 3 .3 3 .3 3 .4 3 .3 3 .3 3 .3 3 .2 3 .2 3 .1 3 .1h6l3-.1 3-.2 3-.3 3-.5 3-.5 3-.7 3-.7 3-1 3-1 3-1.2 3-1.4 3-1.4 3-1.6 3-1.7 3-1.8 3-2 3-2 3-2 3-2.2 3-2.2 3-2.2 3-2.3 3-2.3 3-2.2 3-2.2 3-2.2 3-2.2 3-2 3-2 3-1.9 3-1.8 3-1.6 3-1.6 3-1.4 3-1.3 3-1.2 3-1 3-.8 3-.7 3-.5 3-.4 3-.1h3l3 .1 3 .4 3 .5 3 .7 3 .8 3 1 3 1.1 3 1.3 3 1.4 3 1.4 3 1.6 3 1.7 3 1.7 3 1.8 3 1.8 3 1.8 3 1.9 3 1.9 3 1.9 3 1.8 3 1.9 3 1.8 3 1.8 3 1.7 3 1.6 3 1.6 3 1.5 3 1.5 3 1.3 3 1.2 3 1.2 3 1 3 1 3 .8 3 .8 3 .6 3 .6 3 .4 3 .4 3 .3 3 .1 3 .1h9l3-.2 3-.2 3-.2 3-.3 3-.3 3-.3 3-.3 3-.2 3-.3 3-.3 3-.2 3-.2 3-.2 3-.1 3-.1 3-.1h12l3 .2 3 .1 3 .2 3 .1 3 .2 3 .1 3 .2 3 .1 3 .2h3l3 .2h3l3 .2h6l3 .1h15l3-.1h3l3-.2"/>
    <path d="M50 769.2l3-.3 3-.3 3-.3 3-.2 3-.3 3-.3 3-.2 3-.2 3-.2h3l3-.2h3l3-.1h9l3 .1 3 .1h3l3 .2h3l3 .2h3l3 .1 3 .1h3l3 .1h3l3 .1h27l3-.1 3-.1h3l3-.2h3l3-.1 3-.2h3l3-.2 3-.1 3-.2 3-.1 3-.2 3-.3 3-.2 3-.2 3-.3 3-.3 3-.3 3-.4 3-.3 3-.4 3-.3 3-.4 3-.3 3-.3 3-.3 3-.3 3-.2 3-.2 3-.1h3l3-.1h3l3 .2 3 .2 3 .3 3 .4 3 .4 3 .6 3 .6 3 .7 3 .8 3 1 3 1 3 1 3 1.1 3 1.2 3 1.3 3 1.3 3 1.4 3 1.4 3 1.5 3 1.5 3 1.5 3 1.5 3 1.6 3 1.5 3 1.5 3 1.5 3 1.5 3 1.4 3 1.4 3 1.3 3 1.2 3 1.2 3 1.1 3 1 3 .9 3 .8 3 .7 3 .5 3 .5 3 .3 3 .2h6l3-.2 3-.3 3-.4 3-.5 3-.6 3-.7 3-.7 3-.9 3-.9 3-1 3-1 3-1 3-1 3-1 3-1.1 3-1 3-1 3-1 3-1 3-.9 3-.8 3-.7 3-.7 3-.6 3-.5 3-.4 3-.3 3-.2 3-.2h6l3 .2 3 .3 3 .3 3 .4 3 .4 3 .5 3 .5 3 .5 3 .6 3 .5 3 .5 3 .5 3 .4 3 .4 3 .3 3 .2 3 .2h9l3-.2 3-.3 3-.5 3-.5 3-.8 3-.8 3-1 3-1.2 3-1.3 3-1.5 3-1.6 3-1.8 3-2 3-2 3-2.1 3-2.3 3-2.4 3-2.4 3-2.5 3-2.5 3-2.6 3-2.6 3-2.6 3-2.5 3-2.5 3-2.4 3-2.4 3-2.2 3-2.2 3-2 3-1.9 3-1.7 3-1.6 3-1.4 3-1.3 3-1 3-1 3-.7 3-.6 3-.3 3-.2h6l3 .4 3 .5 3 .7 3 .8 3 1 3 1.1 3 1.3 3 1.4 3 1.5 3 1.7 3 1.7 3 1.8 3 2 3 1.8 3 2 3 2 3 2.1 3 2 3 2.1 3 2 3 2 3 2 3 2 3 1.8 3 1.8 3 1.7 3 1.6 3 1.5 3 1.4 3 1.3 3 1.3 3 1 3 1 3 1 3 .7 3 .6 3 .6 3 .4 3 .4 3 .2 3 .2h9l3-.1 3-.2 3-.2 3-.3 3-.2 3-.3 3-.3 3-.3 3-.3 3-.3 3-.2 3-.2 3-.2 3-.2h15l3 .2 3 .2 3 .3 3 .2 3 .3 3 .3 3 .3 3 .4 3 .3 3 .3 3 .3 3 .3 3 .2 3 .2 3 .2 3 .2 3 .1 3 .1h3l3 .1h9l3-.2h3l3-.2 3-.2"/>
    <path d="M50 796.6l3-.3 3-.3 3-.2 3-.3 3-.2 3-.2 3-.1 3-.1 3-.1h9l3 .2 3 .2 3 .1 3 .3 3 .2 3 .3 3 .2 3 .3 3 .3 3 .2 3 .2 3 .3 3 .2 3 .1 3 .2 3 .1h3l3 .2h15l3-.1 3-.1 3-.2 3-.1 3-.2 3-.2 3-.2 3-.3 3-.2 3-.3 3-.3 3-.3 3-.3 3-.4 3-.3 3-.4 3-.4 3-.4 3-.4 3-.4 3-.4 3-.5 3-.4 3-.4 3-.4 3-.4 3-.4 3-.4 3-.3 3-.3 3-.2 3-.2 3-.2h9l3 .1 3 .2 3 .3 3 .4 3 .4 3 .5 3 .6 3 .7 3 .8 3 .8 3 1 3 .9 3 1 3 1.1 3 1.2 3 1.2 3 1.2 3 1.2 3 1.3 3 1.3 3 1.3 3 1.3 3 1.3 3 1.2 3 1.3 3 1.2 3 1.1 3 1.2 3 1 3 1 3 1 3 .8 3 .8 3 .6 3 .6 3 .5 3 .3 3 .3 3 .1h6l3-.2 3-.2 3-.4 3-.5 3-.5 3-.6 3-.7 3-.8 3-.8 3-.9 3-.9 3-1 3-.9 3-1 3-.9 3-1 3-.8 3-.9 3-.8 3-.8 3-.6 3-.7 3-.5 3-.4 3-.3 3-.3 3-.1h6l3 .2 3 .3 3 .4 3 .5 3 .6 3 .6 3 .7 3 .8 3 .8 3 .8 3 .9 3 .9 3 .8 3 .8 3 .8 3 .8 3 .6 3 .6 3 .5 3 .4 3 .3 3 .3h9l3-.3 3-.5 3-.5 3-.8 3-.8 3-1.1 3-1.3 3-1.4 3-1.6 3-1.7 3-2 3-2 3-2.3 3-2.3 3-2.5 3-2.6 3-2.7 3-2.7 3-2.8 3-2.8 3-2.9 3-2.8 3-2.8 3-2.7 3-2.7 3-2.6 3-2.4 3-2.3 3-2.2 3-2 3-2 3-1.6 3-1.5 3-1.3 3-1 3-1 3-.6 3-.5 3-.3h6l3 .3 3 .5 3 .6 3 .8 3 1 3 1 3 1.3 3 1.4 3 1.5 3 1.7 3 1.7 3 1.9 3 1.9 3 2 3 2 3 2.1 3 2.2 3 2.1 3 2.2 3 2.2 3 2.1 3 2.1 3 2 3 2 3 2 3 1.9 3 1.7 3 1.7 3 1.6 3 1.5 3 1.3 3 1.2 3 1.1 3 1 3 .9 3 .7 3 .7 3 .5 3 .4 3 .3 3 .2h9l3-.1 3-.2 3-.3 3-.3 3-.3 3-.3 3-.4 3-.4 3-.3 3-.4 3-.3 3-.3 3-.2 3-.2 3-.2h12l3 .2 3 .2 3 .2 3 .4 3 .3 3 .4 3 .4 3 .5 3 .4 3 .5 3 .5 3 .4 3 .4 3 .4 3 .4 3 .3 3 .2 3 .3 3 .2h3l3 .2h12l3-.2 3-.2 3-.2 3-.2"/>
    <path d="M50 823.6l3-.3 3-.3 3-.3 3-.2 3-.2 3-.1 3-.1h9l3 .2 3 .2 3 .2 3 .3 3 .3 3 .4 3 .4 3 .4 3 .4 3 .4 3 .4 3 .4 3 .4 3 .3 3 .3 3 .3 3 .2 3 .2 3 .2h3l3 .2h9l3-.1 3-.2 3-.1 3-.2 3-.3 3-.3 3-.3 3-.3 3-.4 3-.4 3-.4 3-.5 3-.5 3-.5 3-.5 3-.5 3-.5 3-.6 3-.5 3-.6 3-.5 3-.5 3-.5 3-.5 3-.5 3-.5 3-.4 3-.4 3-.4 3-.3 3-.2 3-.2 3-.2h9l3 .1 3 .2 3 .3 3 .4 3 .5 3 .5 3 .6 3 .6 3 .8 3 .8 3 .8 3 1 3 1 3 1 3 1 3 1 3 1.2 3 1 3 1.2 3 1.1 3 1.1 3 1.1 3 1 3 1 3 1 3 1 3 .9 3 .8 3 .7 3 .7 3 .6 3 .5 3 .4 3 .3 3 .2 3 .1h3l3-.1 3-.2 3-.4 3-.4 3-.5 3-.6 3-.7 3-.7 3-.8 3-.9 3-.9 3-1 3-.9 3-1 3-1 3-1 3-1 3-.9 3-.9 3-.8 3-.9 3-.7 3-.7 3-.6 3-.5 3-.4 3-.3 3-.1 3-.1h3l3 .2 3 .3 3 .5 3 .5 3 .7 3 .7 3 .9 3 1 3 1 3 1 3 1.2 3 1.3 3 1.2 3 1.2 3 1.3 3 1.2 3 1.1 3 1.2 3 1 3 1 3 .9 3 .8 3 .7 3 .5 3 .5 3 .3 3 .3h6l3-.3 3-.4 3-.6 3-.7 3-1 3-1.1 3-1.4 3-1.5 3-1.7 3-2 3-2 3-2.2 3-2.4 3-2.6 3-2.6 3-2.8 3-2.8 3-3 3-2.9 3-3 3-3 3-2.9 3-2.9 3-2.8 3-2.7 3-2.7 3-2.5 3-2.3 3-2.2 3-2 3-1.8 3-1.6 3-1.3 3-1.2 3-1 3-.6 3-.5 3-.3h3l3 .1 3 .4 3 .5 3 .8 3 .8 3 1.1 3 1.2 3 1.3 3 1.5 3 1.6 3 1.7 3 1.9 3 1.9 3 2 3 2 3 2.2 3 2.2 3 2.2 3 2.2 3 2.2 3 2.3 3 2.2 3 2.1 3 2.2 3 2 3 2 3 1.9 3 1.8 3 1.7 3 1.6 3 1.4 3 1.4 3 1.2 3 1 3 1 3 .8 3 .7 3 .6 3 .4 3 .3 3 .2h9l3-.2 3-.3 3-.3 3-.4 3-.4 3-.4 3-.5 3-.5 3-.5 3-.4 3-.5 3-.4 3-.4 3-.3 3-.3 3-.2 3-.1h3l3-.1h3l3 .2 3 .2 3 .3 3 .3 3 .4 3 .5 3 .5 3 .5 3 .5 3 .6 3 .5 3 .6 3 .5 3 .5 3 .5 3 .4 3 .4 3 .3 3 .3 3 .2 3 .1 3 .1 3 .1h6l3-.2 3-.1 3-.2 3-.3 3-.3"/>
    <path d="M50 849.9l3-.4 3-.4 3-.3 3-.2 3-.2 3-.2h9l3 .1 3 .2 3 .3 3 .3 3 .4 3 .4 3 .5 3 .5 3 .5 3 .6 3 .5 3 .6 3 .5 3 .5 3 .4 3 .4 3 .4 3 .3 3 .2 3 .3 3 .1 3 .1h9l3-.1 3-.2 3-.2 3-.3 3-.3 3-.3 3-.4 3-.5 3-.5 3-.5 3-.6 3-.6 3-.6 3-.6 3-.7 3-.6 3-.7 3-.7 3-.6 3-.7 3-.6 3-.6 3-.6 3-.5 3-.5 3-.5 3-.4 3-.4 3-.3 3-.3 3-.2 3-.1h9l3 .2 3 .2 3 .4 3 .4 3 .4 3 .6 3 .6 3 .7 3 .8 3 .8 3 .9 3 .9 3 1 3 1 3 1 3 1 3 1 3 1 3 1 3 1 3 1 3 1 3 .8 3 .8 3 .8 3 .7 3 .6 3 .6 3 .5 3 .4 3 .3 3 .1 3 .1h3l3-.2 3-.3 3-.3 3-.5 3-.7 3-.7 3-.8 3-.9 3-1 3-1 3-1.2 3-1.1 3-1.2 3-1.3 3-1.2 3-1.2 3-1.3 3-1.2 3-1.1 3-1.2 3-1 3-1 3-.9 3-.8 3-.7 3-.6 3-.5 3-.4 3-.3 3-.1h6l3 .3 3 .4 3 .6 3 .7 3 .8 3 1 3 1 3 1.2 3 1.2 3 1.4 3 1.4 3 1.5 3 1.6 3 1.6 3 1.5 3 1.6 3 1.6 3 1.5 3 1.5 3 1.4 3 1.3 3 1.3 3 1 3 1.1 3 1 3 .7 3 .7 3 .5 3 .4 3 .2h6l3-.3 3-.5 3-.7 3-.9 3-1 3-1.4 3-1.5 3-1.7 3-1.9 3-2 3-2.3 3-2.4 3-2.6 3-2.7 3-2.8 3-2.8 3-3 3-3 3-3 3-2.9 3-3 3-2.8 3-2.9 3-2.7 3-2.6 3-2.4 3-2.3 3-2.1 3-2 3-1.6 3-1.5 3-1.3 3-1 3-.8 3-.5 3-.4h6l3 .4 3 .6 3 .8 3 .9 3 1 3 1.3 3 1.4 3 1.6 3 1.6 3 1.8 3 1.9 3 2 3 2 3 2.1 3 2.2 3 2.2 3 2.2 3 2.3 3 2.3 3 2.2 3 2.2 3 2.2 3 2.1 3 2.1 3 2 3 1.9 3 1.8 3 1.7 3 1.5 3 1.5 3 1.3 3 1.1 3 1 3 1 3 .7 3 .6 3 .4 3 .3 3 .2h6l3-.1 3-.3 3-.3 3-.4 3-.5 3-.5 3-.5 3-.6 3-.7 3-.6 3-.6 3-.6 3-.6 3-.5 3-.5 3-.4 3-.4 3-.3 3-.2 3-.2h9l3 .2 3 .2 3 .3 3 .4 3 .5 3 .5 3 .5 3 .6 3 .6 3 .6 3 .6 3 .6 3 .6 3 .5 3 .5 3 .4 3 .4 3 .3 3 .3 3 .2 3 .1 3 .1h6l3-.1 3-.2 3-.2 3-.2 3-.3 3-.3"/>
    <path d="M50 875l3-.6 3-.5 3-.4 3-.4 3-.3 3-.2h3l3-.1h3l3 .2 3 .2 3 .3 3 .4 3 .4 3 .5 3 .6 3 .6 3 .6 3 .6 3 .7 3 .6 3 .7 3 .6 3 .5 3 .5 3 .5 3 .4 3 .3 3 .3 3 .2 3 .2h12l3-.3 3-.2 3-.3 3-.4 3-.4 3-.5 3-.5 3-.6 3-.6 3-.7 3-.7 3-.7 3-.8 3-.7 3-.8 3-.8 3-.7 3-.7 3-.7 3-.7 3-.7 3-.6 3-.6 3-.5 3-.4 3-.4 3-.3 3-.3 3-.2 3-.1h6l3 .2 3 .2 3 .3 3 .4 3 .5 3 .5 3 .6 3 .7 3 .8 3 .8 3 .9 3 1 3 .9 3 1 3 1 3 1 3 1 3 1.1 3 1 3 1 3 1 3 .9 3 .9 3 .7 3 .8 3 .6 3 .6 3 .5 3 .3 3 .3 3 .2h6l3-.2 3-.3 3-.5 3-.6 3-.7 3-.8 3-1 3-1 3-1.3 3-1.3 3-1.4 3-1.4 3-1.6 3-1.5 3-1.6 3-1.7 3-1.6 3-1.6 3-1.6 3-1.5 3-1.5 3-1.4 3-1.3 3-1.2 3-1 3-1 3-.9 3-.7 3-.5 3-.4 3-.3h6l3 .2 3 .4 3 .5 3 .7 3 .8 3 1 3 1.1 3 1.3 3 1.3 3 1.5 3 1.6 3 1.7 3 1.7 3 1.8 3 1.8 3 1.9 3 1.9 3 1.8 3 1.8 3 1.8 3 1.8 3 1.6 3 1.6 3 1.5 3 1.4 3 1.2 3 1.2 3 1 3 1 3 .7 3 .6 3 .4 3 .3 3 .1h3l3-.4 3-.5 3-.7 3-1 3-1.1 3-1.4 3-1.5 3-1.8 3-2 3-2 3-2.4 3-2.4 3-2.6 3-2.7 3-2.7 3-2.8 3-2.9 3-2.9 3-2.9 3-2.8 3-2.8 3-2.7 3-2.6 3-2.5 3-2.3 3-2.2 3-2 3-1.8 3-1.6 3-1.3 3-1.2 3-.9 3-.6 3-.4 3-.2h3l3 .3 3 .6 3 .7 3 .9 3 1 3 1.3 3 1.5 3 1.5 3 1.7 3 1.8 3 1.9 3 2 3 2 3 2.1 3 2.2 3 2.2 3 2.2 3 2.3 3 2.2 3 2.2 3 2.2 3 2.2 3 2.1 3 2 3 2 3 1.8 3 1.8 3 1.6 3 1.6 3 1.3 3 1.3 3 1 3 1 3 .8 3 .7 3 .5 3 .3 3 .2 3 .1h3l3-.2 3-.3 3-.4 3-.4 3-.6 3-.6 3-.6 3-.7 3-.8 3-.7 3-.8 3-.7 3-.7 3-.7 3-.7 3-.6 3-.6 3-.5 3-.4 3-.3 3-.3 3-.1 3-.1h6l3 .2 3 .3 3 .3 3 .4 3 .5 3 .5 3 .6 3 .6 3 .6 3 .6 3 .6 3 .6 3 .5 3 .5 3 .5 3 .4 3 .3 3 .3 3 .2 3 .1h9l3-.1 3-.2 3-.2 3-.2 3-.3 3-.3 3-.3"/>
    <path d="M50 898.1l3-.7 3-.7 3-.6 3-.5 3-.4 3-.4 3-.2h9l3 .2 3 .3 3 .4 3 .5 3 .5 3 .6 3 .7 3 .7 3 .7 3 .8 3 .7 3 .7 3 .7 3 .7 3 .6 3 .5 3 .5 3 .5 3 .3 3 .3 3 .3 3 .1 3 .1h6l3-.2 3-.2 3-.3 3-.4 3-.4 3-.5 3-.6 3-.6 3-.7 3-.8 3-.7 3-.8 3-.9 3-.8 3-.8 3-.8 3-.9 3-.7 3-.8 3-.7 3-.7 3-.6 3-.5 3-.5 3-.4 3-.3 3-.3 3-.1 3-.1h3l3 .1 3 .2 3 .3 3 .4 3 .5 3 .5 3 .7 3 .7 3 .8 3 .9 3 1 3 1 3 1 3 1 3 1.1 3 1.2 3 1 3 1.2 3 1.1 3 1.1 3 1 3 1 3 1 3 .9 3 .8 3 .7 3 .6 3 .5 3 .5 3 .3 3 .2h6l3-.2 3-.4 3-.5 3-.6 3-.8 3-1 3-1 3-1.3 3-1.4 3-1.6 3-1.6 3-1.7 3-1.9 3-1.9 3-2 3-2 3-2 3-2 3-2 3-2 3-2 3-1.8 3-1.8 3-1.7 3-1.5 3-1.5 3-1.2 3-1.1 3-1 3-.7 3-.6 3-.4 3-.2h3l3 .2 3 .3 3 .5 3 .7 3 .9 3 1 3 1.2 3 1.3 3 1.4 3 1.6 3 1.7 3 1.7 3 1.9 3 2 3 1.9 3 2 3 2 3 2.1 3 2 3 2 3 2 3 2 3 1.8 3 1.8 3 1.8 3 1.6 3 1.5 3 1.4 3 1.3 3 1.2 3 1 3 .8 3 .7 3 .5 3 .4 3 .1h3l3-.3 3-.5 3-.7 3-.9 3-1.1 3-1.3 3-1.6 3-1.7 3-1.9 3-2 3-2.2 3-2.4 3-2.4 3-2.6 3-2.6 3-2.6 3-2.7 3-2.7 3-2.6 3-2.6 3-2.5 3-2.4 3-2.3 3-2.2 3-2 3-1.8 3-1.7 3-1.4 3-1.2 3-1 3-.8 3-.5 3-.3h3l3 .2 3 .4 3 .6 3 .9 3 1 3 1.2 3 1.4 3 1.5 3 1.7 3 1.7 3 2 3 1.9 3 2 3 2 3 2.2 3 2.1 3 2.2 3 2.2 3 2.2 3 2.2 3 2.1 3 2 3 2.1 3 2 3 1.9 3 1.8 3 1.6 3 1.6 3 1.4 3 1.4 3 1.1 3 1 3 1 3 .7 3 .5 3 .5 3 .2 3 .2h3l3-.2 3-.2 3-.4 3-.4 3-.6 3-.6 3-.7 3-.8 3-.8 3-.8 3-.9 3-.8 3-.9 3-.8 3-.8 3-.8 3-.7 3-.7 3-.6 3-.5 3-.5 3-.3 3-.3 3-.2h9l3 .2 3 .3 3 .3 3 .4 3 .5 3 .5 3 .5 3 .6 3 .5 3 .6 3 .6 3 .5 3 .5 3 .4 3 .4 3 .3 3 .2 3 .2h12l3-.2 3-.2 3-.3 3-.3 3-.3 3-.3 3-.3 3-.3"/>
  </g>
</svg>
